<svg class="animated" id="freepik_stories-international-beer-day" xmlns="http://www.w3.org/2000/svg" viewBox="0 0 500 500" version="1.1" xmlns:xlink="http://www.w3.org/1999/xlink" xmlns:svgjs="http://svgjs.com/svgjs"><style>svg#freepik_stories-international-beer-day:not(.animated) .animable {opacity: 0;}svg#freepik_stories-international-beer-day.animated #freepik--Plant--inject-6 {animation: 1s 1 forwards cubic-bezier(.36,-0.01,.5,1.38) zoomIn;animation-delay: 0s;}svg#freepik_stories-international-beer-day.animated #freepik--bar-counter--inject-6 {animation: 1s 1 forwards cubic-bezier(.36,-0.01,.5,1.38) zoomIn;animation-delay: 0s;}svg#freepik_stories-international-beer-day.animated #freepik--Chair--inject-6 {animation: 1s 1 forwards cubic-bezier(.36,-0.01,.5,1.38) zoomIn;animation-delay: 0s;}svg#freepik_stories-international-beer-day.animated #freepik--character-2--inject-6 {animation: 1s 1 forwards cubic-bezier(.36,-0.01,.5,1.38) slideLeft;animation-delay: 0s;}svg#freepik_stories-international-beer-day.animated #freepik--character-1--inject-6 {animation: 1s 1 forwards cubic-bezier(.36,-0.01,.5,1.38) lightSpeedRight;animation-delay: 0s;}            @keyframes zoomIn {                0% {                    opacity: 0;                    transform: scale(0.5);                }                100% {                    opacity: 1;                    transform: scale(1);                }            }                    @keyframes slideLeft {                0% {                    opacity: 0;                    transform: translateX(-30px);                }                100% {                    opacity: 1;                    transform: translateX(0);                }            }                    @keyframes lightSpeedRight {              from {                transform: translate3d(50%, 0, 0) skewX(-20deg);                opacity: 0;              }              60% {                transform: skewX(10deg);                opacity: 1;              }              80% {                transform: skewX(-2deg);              }              to {                opacity: 1;                transform: translate3d(0, 0, 0);              }            }        .animator-hidden { display: none; }</style><g id="freepik--background-complete--inject-6" class="animable" style="transform-origin: 250px 228.23px;"><rect y="382.4" width="500" height="0.25" style="fill: rgb(235, 235, 235); transform-origin: 250px 382.525px;" id="elgylbxruv3ek" class="animable"></rect><rect x="416.78" y="398.49" width="33.12" height="0.25" style="fill: rgb(235, 235, 235); transform-origin: 433.34px 398.615px;" id="elr5dxdcj92ff" class="animable"></rect><rect x="322.53" y="401.21" width="8.69" height="0.25" style="fill: rgb(235, 235, 235); transform-origin: 326.875px 401.335px;" id="el6r2umfnq2jp" class="animable"></rect><rect x="396.59" y="389.21" width="19.19" height="0.25" style="fill: rgb(235, 235, 235); transform-origin: 406.185px 389.335px;" id="el9a1mmdmyj3l" class="animable"></rect><rect x="52.46" y="390.89" width="43.19" height="0.25" style="fill: rgb(235, 235, 235); transform-origin: 74.055px 391.015px;" id="elhpecb9crjq6" class="animable"></rect><rect x="104.56" y="390.89" width="6.33" height="0.25" style="fill: rgb(235, 235, 235); transform-origin: 107.725px 391.015px;" id="elpy55kf3u3o" class="animable"></rect><rect x="131.47" y="395.11" width="93.68" height="0.25" style="fill: rgb(235, 235, 235); transform-origin: 178.31px 395.235px;" id="el5czwac3tep" class="animable"></rect><path d="M237,337.8H43.91a5.71,5.71,0,0,1-5.7-5.71V60.66A5.71,5.71,0,0,1,43.91,55H237a5.71,5.71,0,0,1,5.71,5.71V332.09A5.71,5.71,0,0,1,237,337.8ZM43.91,55.2a5.46,5.46,0,0,0-5.45,5.46V332.09a5.46,5.46,0,0,0,5.45,5.46H237a5.47,5.47,0,0,0,5.46-5.46V60.66A5.47,5.47,0,0,0,237,55.2Z" style="fill: rgb(235, 235, 235); transform-origin: 140.46px 196.4px;" id="elg7dk4giy3g" class="animable"></path><path d="M453.31,337.8H260.21a5.72,5.72,0,0,1-5.71-5.71V60.66A5.72,5.72,0,0,1,260.21,55h193.1A5.71,5.71,0,0,1,459,60.66V332.09A5.71,5.71,0,0,1,453.31,337.8ZM260.21,55.2a5.47,5.47,0,0,0-5.46,5.46V332.09a5.47,5.47,0,0,0,5.46,5.46h193.1a5.47,5.47,0,0,0,5.46-5.46V60.66a5.47,5.47,0,0,0-5.46-5.46Z" style="fill: rgb(235, 235, 235); transform-origin: 356.75px 196.4px;" id="el2ulwu4vzm3f" class="animable"></path><rect x="74.54" y="140.97" width="350.92" height="40.11" style="fill: rgb(245, 245, 245); transform-origin: 250px 161.025px;" id="elece610m05d" class="animable"></rect><path d="M89.36,159.47V147H86.59v12.47a2.1,2.1,0,0,1-1.49,2h0a2.11,2.11,0,0,0-1.49,2.13l.86,17.46h7l.87-17.46a2.12,2.12,0,0,0-1.5-2.13h0A2.12,2.12,0,0,1,89.36,159.47Z" style="fill: rgb(224, 224, 224); transform-origin: 87.9747px 164.03px;" id="elnk7tmox9sy" class="animable"></path><path d="M107.06,162.73V150.37h-4.25v12.36a2.7,2.7,0,0,1-2.12,2.64h0A2.72,2.72,0,0,0,98.57,168v13.06H111.3V168a2.72,2.72,0,0,0-2.12-2.65h0A2.7,2.7,0,0,1,107.06,162.73Z" style="fill: rgb(224, 224, 224); transform-origin: 104.935px 165.715px;" id="eltf7p3gcy7ym" class="animable"></path><path d="M123.63,157.67v-8.92h-3.47v8.92a3.16,3.16,0,0,1-1.17,2.45h0a3.14,3.14,0,0,0-1.16,2.44v18.52H126V162.56a3.14,3.14,0,0,0-1.16-2.44h0A3.15,3.15,0,0,1,123.63,157.67Z" style="fill: rgb(224, 224, 224); transform-origin: 121.915px 164.915px;" id="elieqcxbalt5" class="animable"></path><path d="M140.91,159.9V148.75h-4.12V159.9a8.42,8.42,0,0,1-1,4h0a8.48,8.48,0,0,0-1,4.06v13.07H143V168a8.48,8.48,0,0,0-1-4.06h0A8.41,8.41,0,0,1,140.91,159.9Z" style="fill: rgb(224, 224, 224); transform-origin: 138.895px 164.89px;" id="elzetn6d8k668" class="animable"></path><path d="M157.43,157.47v-7.1h-3.25v7.1a3.68,3.68,0,0,1-2.31,3.41h0a3.65,3.65,0,0,0-2.3,3.59l.81,16.61h10.84l.82-16.61a3.67,3.67,0,0,0-2.3-3.59h0A3.67,3.67,0,0,1,157.43,157.47Z" style="fill: rgb(224, 224, 224); transform-origin: 155.805px 165.725px;" id="elceb40a6kpjm" class="animable"></path><path d="M174.14,159.47V147h-2.76v12.47a2.11,2.11,0,0,1-1.5,2h0a2.12,2.12,0,0,0-1.49,2.13l.87,17.46h7l.86-17.46a2.12,2.12,0,0,0-1.49-2.13h0A2.11,2.11,0,0,1,174.14,159.47Z" style="fill: rgb(224, 224, 224); transform-origin: 172.755px 164.03px;" id="el0fint4xatqc8" class="animable"></path><path d="M191.84,162.73V150.37H187.6v12.36a2.71,2.71,0,0,1-2.13,2.64h0a2.72,2.72,0,0,0-2.12,2.65v13.06h12.73V168a2.72,2.72,0,0,0-2.12-2.65h0A2.7,2.7,0,0,1,191.84,162.73Z" style="fill: rgb(224, 224, 224); transform-origin: 189.715px 165.725px;" id="elp06mt3ps30r" class="animable"></path><path d="M208.41,157.67v-8.92h-3.47v8.92a3.18,3.18,0,0,1-1.16,2.45h0a3.11,3.11,0,0,0-1.16,2.44v18.52h8.11V162.56a3.14,3.14,0,0,0-1.16-2.44h0A3.18,3.18,0,0,1,208.41,157.67Z" style="fill: rgb(224, 224, 224); transform-origin: 206.675px 164.915px;" id="elzh2ish02m2c" class="animable"></path><path d="M225.69,159.9V148.75h-4.12V159.9a8.42,8.42,0,0,1-1,4h0a8.47,8.47,0,0,0-1,4.06v13.07h8.26V168a8.47,8.47,0,0,0-1-4.06h0A8.42,8.42,0,0,1,225.69,159.9Z" style="fill: rgb(224, 224, 224); transform-origin: 223.7px 164.89px;" id="elasv0t7gfx2i" class="animable"></path><path d="M242.21,157.47v-7.1H239v7.1a3.67,3.67,0,0,1-2.31,3.41h0a3.67,3.67,0,0,0-2.3,3.59l.82,16.61H246l.81-16.61a3.65,3.65,0,0,0-2.3-3.59h0A3.68,3.68,0,0,1,242.21,157.47Z" style="fill: rgb(224, 224, 224); transform-origin: 240.6px 165.725px;" id="el6pt5s9edc1u" class="animable"></path><path d="M258.93,159.47V147h-2.77v12.47a2.12,2.12,0,0,1-1.49,2h0a2.13,2.13,0,0,0-1.5,2.13l.87,17.46h7l.86-17.46a2.11,2.11,0,0,0-1.49-2.13h0A2.1,2.1,0,0,1,258.93,159.47Z" style="fill: rgb(224, 224, 224); transform-origin: 257.535px 164.03px;" id="el34nhk4ccd1e" class="animable"></path><path d="M276.62,162.73V150.37h-4.24v12.36a2.7,2.7,0,0,1-2.12,2.64h0a2.73,2.73,0,0,0-2.13,2.65v13.06h12.74V168a2.73,2.73,0,0,0-2.13-2.65h0A2.7,2.7,0,0,1,276.62,162.73Z" style="fill: rgb(224, 224, 224); transform-origin: 274.5px 165.725px;" id="elxn5hqs2p38" class="animable"></path><path d="M293.19,157.67v-8.92h-3.47v8.92a3.15,3.15,0,0,1-1.16,2.45h0a3.14,3.14,0,0,0-1.16,2.44v18.52h8.11V162.56a3.11,3.11,0,0,0-1.16-2.44h0A3.18,3.18,0,0,1,293.19,157.67Z" style="fill: rgb(224, 224, 224); transform-origin: 291.455px 164.915px;" id="el6fphgkgljlc" class="animable"></path><path d="M310.47,159.9V148.75h-4.12V159.9a8.41,8.41,0,0,1-1,4h0a8.48,8.48,0,0,0-1,4.06v13.07h8.27V168a8.48,8.48,0,0,0-1-4.06h0A8.42,8.42,0,0,1,310.47,159.9Z" style="fill: rgb(224, 224, 224); transform-origin: 308.485px 164.89px;" id="eluv97ko23xi" class="animable"></path><path d="M327,157.47v-7.1h-3.26v7.1a3.68,3.68,0,0,1-2.3,3.41h0a3.68,3.68,0,0,0-2.31,3.59l.82,16.61h10.84l.82-16.61a3.68,3.68,0,0,0-2.31-3.59h0A3.68,3.68,0,0,1,327,157.47Z" style="fill: rgb(224, 224, 224); transform-origin: 325.37px 165.725px;" id="elv65zqj0uhpm" class="animable"></path><path d="M343.71,159.47V147h-2.77v12.47a2.1,2.1,0,0,1-1.49,2h0a2.11,2.11,0,0,0-1.49,2.13l.86,17.46h7l.87-17.46a2.13,2.13,0,0,0-1.5-2.13h0A2.12,2.12,0,0,1,343.71,159.47Z" style="fill: rgb(224, 224, 224); transform-origin: 342.325px 164.03px;" id="el0g9b63wqossa" class="animable"></path><path d="M361.41,162.73V150.37h-4.25v12.36a2.7,2.7,0,0,1-2.12,2.64h0a2.72,2.72,0,0,0-2.12,2.65v13.06h12.73V168a2.72,2.72,0,0,0-2.12-2.65h0A2.7,2.7,0,0,1,361.41,162.73Z" style="fill: rgb(224, 224, 224); transform-origin: 359.285px 165.725px;" id="elea75yr9ol1t" class="animable"></path><path d="M378,157.67v-8.92h-3.47v8.92a3.16,3.16,0,0,1-1.17,2.45h0a3.14,3.14,0,0,0-1.16,2.44v18.52h8.12V162.56a3.14,3.14,0,0,0-1.16-2.44h0A3.15,3.15,0,0,1,378,157.67Z" style="fill: rgb(224, 224, 224); transform-origin: 376.26px 164.915px;" id="ela7p2wpluquw" class="animable"></path><path d="M395.26,159.9V148.75h-4.12V159.9a8.42,8.42,0,0,1-1,4h0a8.48,8.48,0,0,0-1,4.06v13.07h8.27V168a8.48,8.48,0,0,0-1-4.06h0A8.41,8.41,0,0,1,395.26,159.9Z" style="fill: rgb(224, 224, 224); transform-origin: 393.275px 164.89px;" id="elm0x2kj9vtub" class="animable"></path><path d="M411.78,157.47v-7.1h-3.25v7.1a3.68,3.68,0,0,1-2.31,3.41h0a3.65,3.65,0,0,0-2.3,3.59l.81,16.61h10.84l.82-16.61a3.67,3.67,0,0,0-2.3-3.59h0A3.67,3.67,0,0,1,411.78,157.47Z" style="fill: rgb(224, 224, 224); transform-origin: 410.155px 165.725px;" id="eln9l4m2odgs" class="animable"></path><rect x="74.54" y="186.21" width="350.92" height="40.11" style="fill: rgb(245, 245, 245); transform-origin: 250px 206.265px;" id="el1ha5iv2lqhs" class="animable"></rect><path d="M410.64,204.71V192.24h2.77v12.47a2.1,2.1,0,0,0,1.49,2h0a2.12,2.12,0,0,1,1.49,2.13l-.86,17.46h-7l-.87-17.46a2.13,2.13,0,0,1,1.5-2.13h0A2.12,2.12,0,0,0,410.64,204.71Z" style="fill: rgb(224, 224, 224); transform-origin: 412.025px 209.27px;" id="el7c83y3ntj16" class="animable"></path><path d="M392.94,208V195.61h4.25V208a2.72,2.72,0,0,0,2.12,2.65h0a2.7,2.7,0,0,1,2.12,2.64v13.06H388.7V213.26a2.7,2.7,0,0,1,2.12-2.64h0A2.72,2.72,0,0,0,392.94,208Z" style="fill: rgb(224, 224, 224); transform-origin: 395.065px 210.98px;" id="elfb5tpodovxh" class="animable"></path><path d="M376.37,202.91V194h3.47v8.92a3.16,3.16,0,0,0,1.17,2.45h0a3.16,3.16,0,0,1,1.16,2.44v18.52h-8.12V207.8a3.16,3.16,0,0,1,1.16-2.44h0A3.15,3.15,0,0,0,376.37,202.91Z" style="fill: rgb(224, 224, 224); transform-origin: 378.11px 210.165px;" id="elp5yv296v718" class="animable"></path><path d="M359.09,205.14V194h4.12v11.15a8.48,8.48,0,0,0,1,4.06h0a8.42,8.42,0,0,1,1,4.05v13.07H357V213.25a8.42,8.42,0,0,1,1-4.05h0A8.47,8.47,0,0,0,359.09,205.14Z" style="fill: rgb(224, 224, 224); transform-origin: 361.105px 210.165px;" id="el6y95sh4jujd" class="animable"></path><path d="M342.57,202.72v-7.11h3.25v7.11a3.66,3.66,0,0,0,2.31,3.4h0a3.66,3.66,0,0,1,2.3,3.59l-.81,16.61H338.78L338,209.71a3.68,3.68,0,0,1,2.3-3.59h0A3.65,3.65,0,0,0,342.57,202.72Z" style="fill: rgb(224, 224, 224); transform-origin: 344.215px 210.965px;" id="elquwwm3ce17" class="animable"></path><path d="M325.86,204.71V192.24h2.76v12.47a2.11,2.11,0,0,0,1.5,2h0a2.13,2.13,0,0,1,1.49,2.13l-.87,17.46h-7l-.86-17.46a2.13,2.13,0,0,1,1.49-2.13h0A2.11,2.11,0,0,0,325.86,204.71Z" style="fill: rgb(224, 224, 224); transform-origin: 327.245px 209.27px;" id="elr6xgzocyled" class="animable"></path><path d="M308.16,208V195.61h4.24V208a2.73,2.73,0,0,0,2.13,2.65h0a2.7,2.7,0,0,1,2.12,2.64v13.06H303.92V213.26a2.7,2.7,0,0,1,2.12-2.64h0A2.72,2.72,0,0,0,308.16,208Z" style="fill: rgb(224, 224, 224); transform-origin: 310.285px 210.98px;" id="elewzj59c0ng7" class="animable"></path><path d="M291.59,202.91V194h3.47v8.92a3.18,3.18,0,0,0,1.16,2.45h0a3.13,3.13,0,0,1,1.16,2.44v18.52h-8.11V207.8a3.16,3.16,0,0,1,1.16-2.44h0A3.18,3.18,0,0,0,291.59,202.91Z" style="fill: rgb(224, 224, 224); transform-origin: 293.325px 210.165px;" id="elhlruz0uci6" class="animable"></path><path d="M274.31,205.14V194h4.12v11.15a8.48,8.48,0,0,0,1,4.06h0a8.41,8.41,0,0,1,1,4.05v13.07h-8.26V213.25a8.41,8.41,0,0,1,1-4.05h0A8.48,8.48,0,0,0,274.31,205.14Z" style="fill: rgb(224, 224, 224); transform-origin: 276.3px 210.165px;" id="el8fh5u2vtz65" class="animable"></path><path d="M257.79,202.72v-7.11H261v7.11a3.65,3.65,0,0,0,2.31,3.4h0a3.68,3.68,0,0,1,2.3,3.59l-.82,16.61H254l-.81-16.61a3.66,3.66,0,0,1,2.3-3.59h0A3.66,3.66,0,0,0,257.79,202.72Z" style="fill: rgb(224, 224, 224); transform-origin: 259.4px 210.965px;" id="els8xrzy68bl" class="animable"></path><path d="M241.07,204.71V192.24h2.77v12.47a2.12,2.12,0,0,0,1.49,2h0a2.14,2.14,0,0,1,1.5,2.13L246,226.32h-7l-.86-17.46a2.12,2.12,0,0,1,1.49-2.13h0A2.1,2.1,0,0,0,241.07,204.71Z" style="fill: rgb(224, 224, 224); transform-origin: 242.485px 209.28px;" id="elb3cxpbg3pm8" class="animable"></path><path d="M223.38,208V195.61h4.24V208a2.72,2.72,0,0,0,2.12,2.65h0a2.71,2.71,0,0,1,2.13,2.64v13.06H219.13V213.26a2.71,2.71,0,0,1,2.13-2.64h0A2.72,2.72,0,0,0,223.38,208Z" style="fill: rgb(224, 224, 224); transform-origin: 225.5px 210.98px;" id="elnkv7u81z1eq" class="animable"></path><path d="M206.81,202.91V194h3.47v8.92a3.15,3.15,0,0,0,1.16,2.45h0a3.16,3.16,0,0,1,1.16,2.44v18.52h-8.11V207.8a3.13,3.13,0,0,1,1.16-2.44h0A3.18,3.18,0,0,0,206.81,202.91Z" style="fill: rgb(224, 224, 224); transform-origin: 208.545px 210.165px;" id="elcg36it0w6t6" class="animable"></path><path d="M189.53,205.14V194h4.12v11.15a8.47,8.47,0,0,0,1,4.06h0a8.42,8.42,0,0,1,1,4.05v13.07h-8.27V213.25a8.42,8.42,0,0,1,1-4.05h0A8.48,8.48,0,0,0,189.53,205.14Z" style="fill: rgb(224, 224, 224); transform-origin: 191.515px 210.165px;" id="elam881zp33b" class="animable"></path><path d="M173,202.72v-7.11h3.26v7.11a3.65,3.65,0,0,0,2.3,3.4h0a3.68,3.68,0,0,1,2.31,3.59l-.82,16.61H169.21l-.82-16.61a3.68,3.68,0,0,1,2.31-3.59h0A3.65,3.65,0,0,0,173,202.72Z" style="fill: rgb(224, 224, 224); transform-origin: 174.63px 210.965px;" id="elegejkgzo89c" class="animable"></path><path d="M156.29,204.71V192.24h2.77v12.47a2.1,2.1,0,0,0,1.49,2h0a2.12,2.12,0,0,1,1.49,2.13l-.86,17.46h-7l-.87-17.46a2.14,2.14,0,0,1,1.5-2.13h0A2.12,2.12,0,0,0,156.29,204.71Z" style="fill: rgb(224, 224, 224); transform-origin: 157.675px 209.27px;" id="elbx2rno4cc6w" class="animable"></path><path d="M138.59,208V195.61h4.25V208a2.72,2.72,0,0,0,2.12,2.65h0a2.7,2.7,0,0,1,2.12,2.64v13.06H134.35V213.26a2.7,2.7,0,0,1,2.12-2.64h0A2.72,2.72,0,0,0,138.59,208Z" style="fill: rgb(224, 224, 224); transform-origin: 140.715px 210.98px;" id="elziw6k1uxre" class="animable"></path><path d="M122,202.91V194h3.47v8.92a3.16,3.16,0,0,0,1.17,2.45h0a3.16,3.16,0,0,1,1.16,2.44v18.52H119.7V207.8a3.16,3.16,0,0,1,1.16-2.44h0A3.15,3.15,0,0,0,122,202.91Z" style="fill: rgb(224, 224, 224); transform-origin: 123.75px 210.165px;" id="elb09rtk1kck" class="animable"></path><path d="M104.74,205.14V194h4.12v11.15a8.48,8.48,0,0,0,1,4.06h0a8.42,8.42,0,0,1,1,4.05v13.07h-8.27V213.25a8.42,8.42,0,0,1,1-4.05h0A8.47,8.47,0,0,0,104.74,205.14Z" style="fill: rgb(224, 224, 224); transform-origin: 106.725px 210.165px;" id="el5mndc7f2ysd" class="animable"></path><path d="M88.22,202.72v-7.11h3.25v7.11a3.66,3.66,0,0,0,2.31,3.4h0a3.66,3.66,0,0,1,2.3,3.59l-.81,16.61H84.43l-.82-16.61a3.68,3.68,0,0,1,2.3-3.59h0A3.65,3.65,0,0,0,88.22,202.72Z" style="fill: rgb(224, 224, 224); transform-origin: 89.8453px 210.965px;" id="el4yzmos3v8i" class="animable"></path></g><g id="freepik--Shadow--inject-6" class="animable" style="transform-origin: 250px 416.24px;"><ellipse id="freepik--path--inject-6" cx="250" cy="416.24" rx="193.89" ry="11.32" style="fill: rgb(245, 245, 245); transform-origin: 250px 416.24px;" class="animable"></ellipse></g><g id="freepik--Text--inject-6" class="animable animator-hidden" style="transform-origin: 249.979px 105.625px;"><path d="M385.59,124a625.82,625.82,0,0,1-271.18,0l6.09-27.45a597.7,597.7,0,0,0,259,0Z" style="fill: #F9C015; transform-origin: 250px 117.707px;" id="elom7vxu7wq9t" class="animable"></path><path d="M127.52,106.3l2.26.46q-1.18,5.83-2.36,11.65l-2.3-.47Z" style="fill: rgb(255, 255, 255); transform-origin: 127.45px 112.355px;" id="elrdi1ea10yff" class="animable"></path><path d="M143.89,109.44q-1,5.86-2.09,11.71l-1.9-.34q-2.7-4.59-5.32-9.19c-.51,2.64-1,5.27-1.52,7.91l-2.29-.45q1.14-5.83,2.29-11.66l1.86.36q2.6,4.6,5.28,9.18l1.44-7.92Z" style="fill: rgb(255, 255, 255); transform-origin: 137.33px 114.285px;" id="eljv4nwfjaer" class="animable"></path><path d="M149.33,112.28l-4.05-.69c.1-.62.21-1.23.32-1.84q5.18.9,10.36,1.72c-.1.61-.19,1.23-.29,1.84l-4.06-.65L150,122.55l-2.32-.39Q148.51,117.23,149.33,112.28Z" style="fill: rgb(255, 255, 255); transform-origin: 150.62px 116.15px;" id="el6j99yixw04m" class="animable"></path><path d="M165.48,123c-.09.61-.17,1.22-.26,1.83q-4.68-.64-9.36-1.37.91-5.87,1.81-11.75,4.47.69,8.94,1.31c-.08.61-.17,1.23-.25,1.84-2.23-.31-4.46-.64-6.69-1-.15,1-.3,2-.46,3.06l6,.86c-.08.6-.17,1.2-.25,1.8-2-.28-4-.57-6-.87-.16,1.08-.32,2.16-.49,3.24C160.79,122.36,163.14,122.69,165.48,123Z" style="fill: rgb(255, 255, 255); transform-origin: 161.235px 118.27px;" id="elzv9pra62zr" class="animable"></path><path d="M176,126.25c-.72-1.26-1.43-2.51-2.13-3.77a3.88,3.88,0,0,1-.48,0l-2.81-.36c-.15,1.14-.3,2.29-.44,3.43l-2.33-.3,1.59-11.79q2.52.35,5,.66c3.22.4,5,2.22,4.73,4.83a3.78,3.78,0,0,1-3.08,3.42l2.41,4.22Zm-1.9-10.33-2.67-.34c-.2,1.56-.41,3.13-.61,4.7l2.69.34c2,.25,3.17-.5,3.35-2S176.1,116.17,174.1,115.92Z" style="fill: rgb(255, 255, 255); transform-origin: 173.483px 120.025px;" id="elf2py20ff8k4" class="animable"></path><path d="M193.13,116.13q-.56,5.93-1.12,11.84l-1.91-.18q-3.07-4.35-6-8.72l-.87,8-2.31-.25q.66-5.91,1.33-11.82l1.88.21q2.94,4.38,6,8.72l.78-8Z" style="fill: rgb(255, 255, 255); transform-origin: 187.025px 121.485px;" id="elus7jd2089at" class="animable"></path><path d="M203.73,126.2q-3.12-.23-6.24-.5c-.49.88-1,1.76-1.48,2.63l-2.4-.21q3.38-5.66,6.62-11.36l2.25.18q2.33,6.15,4.74,12.27l-2.44-.17Zm-.63-1.78q-1-2.69-1.94-5.37-1.36,2.51-2.74,5Z" style="fill: rgb(255, 255, 255); transform-origin: 200.415px 122.985px;" id="elned9j61aj" class="animable"></path><path d="M211.38,119.45l-4.1-.28c.05-.62.09-1.24.13-1.86,3.49.25,7,.46,10.46.65,0,.62-.07,1.24-.1,1.86l-4.1-.23-.6,10-2.33-.14C211,126.12,211.16,122.78,211.38,119.45Z" style="fill: rgb(255, 255, 255); transform-origin: 212.575px 123.45px;" id="elk64bs4ab7e" class="animable"></path><path d="M219.6,118.05l2.29.11q-.28,5.94-.56,11.87l-2.33-.11Z" style="fill: rgb(255, 255, 255); transform-origin: 220.445px 124.04px;" id="elpu8hoce3v4" class="animable"></path><path d="M224.08,124.2c.16-3.51,3.09-6,6.9-5.86s6.59,2.75,6.52,6.29-3,6.06-6.9,5.93S223.93,127.72,224.08,124.2Zm11.09.37a4.39,4.39,0,1,0-4.51,4.06A4.16,4.16,0,0,0,235.17,124.57Z" style="fill: rgb(255, 255, 255); transform-origin: 230.788px 124.45px;" id="elzsognjw4z7" class="animable"></path><path d="M251,118.81c0,4,0,7.92,0,11.89h-1.92q-3.47-4-6.84-8.1c0,2.68-.07,5.37-.1,8.05l-2.32,0q.1-5.94.2-11.88l1.88,0q3.34,4.06,6.79,8.1,0-4,0-8Z" style="fill: rgb(255, 255, 255); transform-origin: 245.41px 124.735px;" id="elwxo8gk0jjf" class="animable"></path><path d="M262.52,127.82q-3.12.06-6.26.09c-.4.93-.8,1.85-1.21,2.77h-2.41q2.81-6,5.5-11.94l2.26,0c1.92,3.93,3.89,7.85,5.88,11.76l-2.44.06Zm-.8-1.72q-1.23-2.56-2.43-5.15-1.12,2.61-2.26,5.22C258.59,126.16,260.16,126.13,261.72,126.1Z" style="fill: rgb(255, 255, 255); transform-origin: 259.46px 124.71px;" id="elzn5l7gfudcl" class="animable"></path><path d="M267.54,118.56l2.29-.08.33,10c2.18-.07,4.37-.16,6.55-.25,0,.62.06,1.24.08,1.87-3,.13-5.94.23-8.91.32Q267.71,124.5,267.54,118.56Z" style="fill: rgb(255, 255, 255); transform-origin: 272.165px 124.45px;" id="ell68pox6juyc" class="animable"></path><path d="M294.53,125.86c.15,2-1.45,3.34-4.68,3.55q-3.12.21-6.25.37-.32-5.93-.64-11.87c1.92-.1,3.85-.22,5.77-.34,2.95-.19,4.62.89,4.76,2.78a2.83,2.83,0,0,1-1.41,2.72A2.94,2.94,0,0,1,294.53,125.86Zm-9.18-6.35c.06,1.09.12,2.18.19,3.28l3.26-.2c1.6-.11,2.47-.71,2.39-1.79s-1-1.59-2.6-1.49Zm6.83,6.29c-.08-1.19-1.06-1.64-2.81-1.53l-3.73.23c.06,1.14.13,2.28.2,3.42l3.75-.23C291.35,127.58,292.26,127,292.18,125.8Z" style="fill: rgb(255, 255, 255); transform-origin: 288.75px 123.664px;" id="el8b12d2uv928" class="animable"></path><path d="M306.5,126.25c.06.61.12,1.23.17,1.84q-4.69.43-9.41.8-.45-5.92-.91-11.86c3-.23,6-.48,9-.75.05.61.11,1.23.16,1.84q-3.35.31-6.71.58l.24,3.08q3-.24,6-.51c.06.6.11,1.2.17,1.81-2,.18-4,.35-6,.51.09,1.09.18,2.18.26,3.27Q303,126.58,306.5,126.25Z" style="fill: rgb(255, 255, 255); transform-origin: 301.51px 122.585px;" id="eljcsqk387xzd" class="animable"></path><path d="M318.46,125l.21,1.84q-4.69.52-9.4,1L308.13,116q4.49-.42,9-.93l.21,1.84c-2.24.25-4.47.49-6.71.71.1,1,.2,2.05.31,3.08,2-.2,4-.41,6-.63.06.6.13,1.2.2,1.8l-6,.64c.11,1.08.22,2.17.32,3.26C313.77,125.54,316.11,125.29,318.46,125Z" style="fill: rgb(255, 255, 255); transform-origin: 313.4px 121.455px;" id="elfg452ai2dlk" class="animable"></path><path d="M329.45,125.57l-3-3.13a4,4,0,0,1-.48.08l-2.8.34c.13,1.15.27,2.29.41,3.44l-2.33.27q-.67-5.89-1.37-11.81c1.69-.19,3.37-.39,5.05-.6,3.22-.41,5.43.9,5.78,3.51a3.79,3.79,0,0,1-2.15,4.07q1.68,1.76,3.38,3.5ZM325.07,116l-2.67.33c.18,1.57.37,3.14.56,4.7l2.69-.32c2-.26,3-1.27,2.76-2.75S327.07,115.77,325.07,116Z" style="fill: rgb(255, 255, 255); transform-origin: 325.91px 120.328px;" id="eljlpt94f1iwq" class="animable"></path><path d="M337.53,112.45l5.35-.8c4-.62,7.05,1.27,7.65,4.79s-1.78,6.33-5.83,7c-1.81.29-3.63.56-5.45.83Q338.4,118.33,337.53,112.45Zm6.78,9.12c2.77-.43,4.31-2.32,3.91-4.75s-2.43-3.73-5.16-3.31l-3,.45q.62,4,1.21,8.07Z" style="fill: rgb(255, 255, 255); transform-origin: 344.076px 117.902px;" id="elrv8j32nwmm" class="animable"></path><path d="M361.35,117.78q-3.09.57-6.19,1.11l-.75,2.92-2.39.4q1.83-6.33,3.53-12.67l2.23-.4q3.81,5.35,7.72,10.66l-2.41.46Zm-1.07-1.56c-1.09-1.57-2.17-3.13-3.24-4.7-.46,1.84-.93,3.69-1.4,5.53Z" style="fill: rgb(255, 255, 255); transform-origin: 358.76px 115.675px;" id="eliv4m9czk71" class="animable"></path><path d="M370.86,114.48c.28,1.37.55,2.74.83,4.11l-2.3.46-.81-4.08q-3.16-3.31-6.27-6.66l2.42-.46q2.32,2.49,4.69,5c.83-2.14,1.65-4.27,2.46-6.41l2.22-.46C373.05,108.8,372,111.64,370.86,114.48Z" style="fill: rgb(255, 255, 255); transform-origin: 368.205px 112.515px;" id="el7fh7gz06h5h" class="animable"></path><path d="M123.61,100a.5.5,0,0,1-.33-.12L93.05,73.27a.5.5,0,1,1,.66-.76l30.23,26.6a.5.5,0,0,1,0,.7A.46.46,0,0,1,123.61,100Z" style="fill: rgb(38, 50, 56); transform-origin: 108.479px 86.1928px;" id="ela52ituu7tqt" class="animable"></path><path d="M376.39,100a.46.46,0,0,1-.37-.17.5.5,0,0,1,0-.7l30.23-26.6a.5.5,0,0,1,.66.76L376.72,99.86A.5.5,0,0,1,376.39,100Z" style="fill: rgb(38, 50, 56); transform-origin: 391.48px 86.2034px;" id="eluq1fnrhw0tm" class="animable"></path></g><g id="freepik--Plant--inject-6" class="animable" style="transform-origin: 415.051px 348.127px;"><polygon points="433.94 415.86 398.69 415.86 394.01 381.59 438.63 381.59 433.94 415.86" style="fill: rgb(38, 50, 56); transform-origin: 416.32px 398.725px;" id="elufb5pby4ikn" class="animable"></polygon><path d="M415.87,381.64s-4.94-23.32,4.05-35.95-8.12-.14-10.09,11.68c0,0-2.95-21.14,5.77-36s-7.59-2.66-9,12.66c0,0-2.67-18.86,1.34-29.46s-3-3.78-5.65,2.86.84,23.1.84,23.1-7-30.42-13.61-28,9.9,22.35,12.19,32.72c0,0-7.81-13.95-13.73-11.05s9.17,4.35,16.08,25.16l2.43,9.75s-7.18-13.77-11.88-9.43,13.92,11.85,18.25,32.72Z" style="fill: #F9C015; transform-origin: 404.573px 340.733px;" id="elf2tmcapnzrf" class="animable"></path><path d="M414.9,383s-1-29.4-15.56-41.85,9.68-2.6,15.56,11c0,0-2.77-26.2-17.64-41.42s8.3-5.45,14.53,12.49c0,0-2.42-23.38-10.38-34.88s2.42-5.42,7.61,1.74S414.9,318,414.9,318s-.69-38.52,8-37.59-5.19,29.72-4.85,42.82c0,0,5.19-19,13.15-17.32s-9.69,7.94-11.76,34.92V353.2s4.49-18.64,11.41-14.83S417.67,356.7,418.71,383Z" style="fill: #F9C015; transform-origin: 412.807px 331.697px;" id="elxwftswyzqs" class="animable"></path><g id="eldad3si11mf5"><path d="M414.9,383s-1-29.4-15.56-41.85,9.68-2.6,15.56,11c0,0-2.77-26.2-17.64-41.42s8.3-5.45,14.53,12.49c0,0-2.42-23.38-10.38-34.88s2.42-5.42,7.61,1.74S414.9,318,414.9,318s-.69-38.52,8-37.59-5.19,29.72-4.85,42.82c0,0,5.19-19,13.15-17.32s-9.69,7.94-11.76,34.92V353.2s4.49-18.64,11.41-14.83S417.67,356.7,418.71,383Z" style="fill: rgb(255, 255, 255); opacity: 0.2; isolation: isolate; transform-origin: 412.807px 331.697px;" class="animable" id="elhhzby70y8a6"></path></g><path d="M389.59,378.81v3.26a4,4,0,0,0,3.94,3.94h46a3.94,3.94,0,0,0,3.94-3.94v-3.26Z" style="fill: rgb(38, 50, 56); transform-origin: 416.53px 382.41px;" id="elhmgw6p2jcs" class="animable"></path><g id="elw3jen1jrnt"><path d="M389.59,378.81v3.26a4,4,0,0,0,3.94,3.94h46a3.94,3.94,0,0,0,3.94-3.94v-3.26Z" style="fill: rgb(255, 255, 255); opacity: 0.2; isolation: isolate; transform-origin: 416.53px 382.41px;" class="animable" id="el4gjoimfnc18"></path></g></g><g id="freepik--bar-counter--inject-6" class="animable" style="transform-origin: 242.525px 317.295px;"><path d="M121.5,248.79l2.53,0v-1.08H121.5a2.15,2.15,0,0,1-2.16-2.13l0-5.06a2.14,2.14,0,0,1,2.13-2.15H124v-1.09h-2.53a3.24,3.24,0,0,0-3.21,3.25l0,5A3.23,3.23,0,0,0,121.5,248.79Z" style="fill: rgb(38, 50, 56); transform-origin: 121.145px 243.035px;" id="elvnbxvy02maf" class="animable"></path><g id="el0pfmkt14ffv"><g style="opacity: 0.4; transform-origin: 121.145px 243.035px;" class="animable" id="ellrgiec6wtuo"><path d="M121.5,248.79l2.53,0v-1.08H121.5a2.15,2.15,0,0,1-2.16-2.13l0-5.06a2.14,2.14,0,0,1,2.13-2.15H124v-1.09h-2.53a3.24,3.24,0,0,0-3.21,3.25l0,5A3.23,3.23,0,0,0,121.5,248.79Z" style="fill: rgb(255, 255, 255); transform-origin: 121.145px 243.035px;" id="elq8dpwhmuspi" class="animable"></path></g></g><g id="elmaqm7ns09m"><rect x="123.55" y="235.49" width="13.34" height="15.82" style="fill: rgb(38, 50, 56); transform-origin: 130.22px 243.4px; transform: rotate(-0.08deg);" class="animable" id="eld4lm6kdcv7b"></rect></g><g id="elt5f75jn9zt"><rect x="123.55" y="235.49" width="13.34" height="15.82" style="fill: rgb(255, 255, 255); opacity: 0.6; transform-origin: 130.22px 243.4px; transform: rotate(-0.08deg);" class="animable" id="elnmpb1tixuz"></rect></g><g id="elkxw2c5dvcwk"><path d="M125.55,250.34h-1.48V242a.74.74,0,0,1,.74-.74h0a.73.73,0,0,1,.74.73Z" style="opacity: 0.1; isolation: isolate; transform-origin: 124.81px 245.8px;" class="animable" id="elyi4qgmdq1n9"></path></g><g id="elxtbebjct5a"><path d="M129.16,250.34h-1.48V242a.74.74,0,0,1,.74-.74h0a.74.74,0,0,1,.74.74Z" style="opacity: 0.1; isolation: isolate; transform-origin: 128.42px 245.8px;" class="animable" id="elq8ywo4kxrih"></path></g><g id="elpzutxu8ziv9"><path d="M132.78,250.33H131.3V242a.74.74,0,0,1,.74-.74h0a.74.74,0,0,1,.74.73Z" style="opacity: 0.1; isolation: isolate; transform-origin: 132.04px 245.795px;" class="animable" id="elj930gei58ac"></path></g><g id="elz7tsk4srn6n"><path d="M136.39,250.33h-1.48V242a.74.74,0,0,1,.74-.74h0a.74.74,0,0,1,.74.74Z" style="opacity: 0.1; isolation: isolate; transform-origin: 135.65px 245.795px;" class="animable" id="el82qzlt37yls"></path></g><g id="elpvon9kej3vf"><rect x="123.27" y="234.29" width="13.88" height="1.93" style="fill: rgb(38, 50, 56); transform-origin: 130.21px 235.255px; transform: rotate(-0.08deg);" class="animable" id="elk373yu9umtj"></rect></g><g id="elq7ta6xoejhf"><rect x="123.29" y="250.13" width="13.88" height="1.93" style="fill: rgb(38, 50, 56); transform-origin: 130.23px 251.095px; transform: rotate(-0.08deg);" class="animable" id="el5refvzl95lx"></rect></g><g id="el15nuwodstyq"><rect x="123.27" y="234.29" width="13.88" height="1.93" style="fill: rgb(255, 255, 255); opacity: 0.5; transform-origin: 130.21px 235.255px; transform: rotate(-0.08deg);" class="animable" id="elnqdmhb8wahc"></rect></g><g id="el88ljgb655xo"><rect x="123.29" y="250.13" width="13.88" height="1.93" style="fill: rgb(255, 255, 255); opacity: 0.5; transform-origin: 130.23px 251.095px; transform: rotate(-0.08deg);" class="animable" id="elervu1w2lkde"></rect></g><path d="M363.91,248.79l-2.52,0v-1.08h2.53a2.14,2.14,0,0,0,2.15-2.13l0-5.06a2.14,2.14,0,0,0-2.13-2.15h-2.53v-1.09H364a3.24,3.24,0,0,1,3.22,3.25l0,5A3.24,3.24,0,0,1,363.91,248.79Z" style="fill: rgb(38, 50, 56); transform-origin: 364.305px 243.035px;" id="elhqedmjwdhev" class="animable"></path><g id="elal3sonsd45t"><g style="opacity: 0.4; transform-origin: 364.305px 243.035px;" class="animable" id="elpyt2j2b69eq"><path d="M363.91,248.79l-2.52,0v-1.08h2.53a2.14,2.14,0,0,0,2.15-2.13l0-5.06a2.14,2.14,0,0,0-2.13-2.15h-2.53v-1.09H364a3.24,3.24,0,0,1,3.22,3.25l0,5A3.24,3.24,0,0,1,363.91,248.79Z" style="fill: rgb(255, 255, 255); transform-origin: 364.305px 243.035px;" id="elqblwggqr8ol" class="animable"></path></g></g><g id="el8f103q7rjpf"><rect x="348.52" y="235.49" width="13.34" height="15.82" style="fill: rgb(38, 50, 56); transform-origin: 355.19px 243.4px; transform: rotate(-179.92deg);" class="animable" id="el2u33kr6fkfu"></rect></g><g id="elee1et9dzg1f"><rect x="348.52" y="235.49" width="13.34" height="15.82" style="fill: rgb(255, 255, 255); opacity: 0.6; transform-origin: 355.19px 243.4px; transform: rotate(-179.92deg);" class="animable" id="elt59ltk5exjf"></rect></g><g id="el8i2a9an9zcc"><path d="M359.87,250.34h1.48V242a.74.74,0,0,0-.74-.74h0a.73.73,0,0,0-.74.73Z" style="opacity: 0.1; isolation: isolate; transform-origin: 360.61px 245.8px;" class="animable" id="elm2ot9xdxekr"></path></g><g id="el494noq35f5a"><path d="M356.25,250.34h1.48V242a.74.74,0,0,0-.74-.74h0a.74.74,0,0,0-.74.74Z" style="opacity: 0.1; isolation: isolate; transform-origin: 356.99px 245.8px;" class="animable" id="el9i7hmlnps0s"></path></g><g id="el4r37w054os"><path d="M352.64,250.33h1.48V242a.74.74,0,0,0-.74-.74h0a.73.73,0,0,0-.74.73Z" style="opacity: 0.1; isolation: isolate; transform-origin: 353.38px 245.795px;" class="animable" id="elovh285xsz1k"></path></g><g id="elzqnswf7bgc9"><path d="M349,250.33h1.48V242a.74.74,0,0,0-.73-.74h0a.74.74,0,0,0-.74.74Z" style="opacity: 0.1; isolation: isolate; transform-origin: 349.74px 245.795px;" class="animable" id="elenfx3jsfdh"></path></g><g id="eljr3f3ckshej"><rect x="348.27" y="234.29" width="13.88" height="1.93" style="fill: rgb(38, 50, 56); transform-origin: 355.21px 235.255px; transform: rotate(-179.92deg);" class="animable" id="el6lbwwlsmmy"></rect></g><g id="elreo8l3zy3n"><rect x="348.24" y="250.13" width="13.88" height="1.93" style="fill: rgb(38, 50, 56); transform-origin: 355.18px 251.095px; transform: rotate(-179.92deg);" class="animable" id="elguvvc8ht5ao"></rect></g><g id="elv4si7ink4ib"><rect x="348.27" y="234.29" width="13.88" height="1.93" style="fill: rgb(255, 255, 255); opacity: 0.5; transform-origin: 355.21px 235.255px; transform: rotate(-179.92deg);" class="animable" id="elrz6qcx0del9"></rect></g><g id="elzeg0o58lbvc"><rect x="348.24" y="250.13" width="13.88" height="1.93" style="fill: rgb(255, 255, 255); opacity: 0.5; transform-origin: 355.18px 251.095px; transform: rotate(-179.92deg);" class="animable" id="elbm6cfrhv04q"></rect></g><rect x="110.56" y="255.85" width="263.93" height="154.02" style="fill: rgb(38, 50, 56); transform-origin: 242.525px 332.86px;" id="ellt6fnzkdx58" class="animable"></rect><g id="elvuvsj77a7in"><rect x="110.56" y="255.85" width="263.93" height="154.02" style="fill: rgb(255, 255, 255); opacity: 0.7; isolation: isolate; transform-origin: 242.525px 332.86px;" class="animable" id="elcywhn2xcex"></rect></g><g id="elz9xr084y2j"><rect x="123.29" y="256.52" width="2.35" height="152.19" style="opacity: 0.1; isolation: isolate; transform-origin: 124.465px 332.615px;" class="animable" id="eld4thljscaa"></rect></g><g id="elsesqrxow9so"><rect x="141.45" y="256.52" width="2.35" height="152.19" style="opacity: 0.1; isolation: isolate; transform-origin: 142.625px 332.615px;" class="animable" id="elszs4hitm5nc"></rect></g><g id="elk6ox1e9s91r"><rect x="159.61" y="256.52" width="2.35" height="152.19" style="opacity: 0.1; isolation: isolate; transform-origin: 160.785px 332.615px;" class="animable" id="elzhdi28l1e9q"></rect></g><g id="elt2gzd6lq8c"><rect x="177.78" y="256.52" width="2.35" height="152.19" style="opacity: 0.1; isolation: isolate; transform-origin: 178.955px 332.615px;" class="animable" id="elwuzgkokry4p"></rect></g><g id="elhsuztbgyv2s"><rect x="195.94" y="256.52" width="2.35" height="152.19" style="opacity: 0.1; isolation: isolate; transform-origin: 197.115px 332.615px;" class="animable" id="ell9e4apu6vt"></rect></g><g id="elizl8v6ns24r"><rect x="214.1" y="256.52" width="2.35" height="152.19" style="opacity: 0.1; isolation: isolate; transform-origin: 215.275px 332.615px;" class="animable" id="ele87bx9tk2fa"></rect></g><g id="eldshhnd14r3c"><rect x="232.27" y="256.52" width="2.35" height="152.19" style="opacity: 0.1; isolation: isolate; transform-origin: 233.445px 332.615px;" class="animable" id="elw42j2t9ia"></rect></g><g id="elypmd8085fpc"><rect x="250.43" y="256.52" width="2.35" height="152.19" style="opacity: 0.1; isolation: isolate; transform-origin: 251.605px 332.615px;" class="animable" id="elpm7hnsmc3e"></rect></g><g id="elf0ccfloz2qb"><rect x="268.59" y="256.52" width="2.35" height="152.19" style="opacity: 0.1; isolation: isolate; transform-origin: 269.765px 332.615px;" class="animable" id="el3db3691x9kc"></rect></g><g id="el9asdjjw47yj"><rect x="286.76" y="256.52" width="2.35" height="152.19" style="opacity: 0.1; isolation: isolate; transform-origin: 287.935px 332.615px;" class="animable" id="elbf1i0pavimb"></rect></g><g id="el0srq37wflhs9"><rect x="304.92" y="256.52" width="2.35" height="152.19" style="opacity: 0.1; isolation: isolate; transform-origin: 306.095px 332.615px;" class="animable" id="elratw4urpg2l"></rect></g><g id="eltat15q9k14h"><rect x="323.08" y="256.52" width="2.35" height="152.19" style="opacity: 0.1; isolation: isolate; transform-origin: 324.255px 332.615px;" class="animable" id="elriyiz4z691d"></rect></g><g id="elcrj3tjzifjd"><rect x="341.25" y="256.52" width="2.35" height="152.19" style="opacity: 0.1; isolation: isolate; transform-origin: 342.425px 332.615px;" class="animable" id="eljpvyknn1beh"></rect></g><g id="elzkdqnuzyuj"><rect x="359.41" y="256.52" width="2.35" height="152.19" style="opacity: 0.1; isolation: isolate; transform-origin: 360.585px 332.615px;" class="animable" id="elhwyoll069zp"></rect></g><rect x="107.84" y="403.28" width="269.36" height="10.71" rx="1.31" style="fill: rgb(38, 50, 56); transform-origin: 242.52px 408.635px;" id="elhlixtb7mneu" class="animable"></rect><rect x="101.77" y="252.08" width="281.51" height="6.07" rx="1.92" style="fill: rgb(38, 50, 56); transform-origin: 242.525px 255.115px;" id="el6nx68ihws24" class="animable"></rect><g id="elcw5e2gxo51g"><rect x="107.84" y="403.28" width="269.36" height="10.71" rx="1.31" style="fill: rgb(255, 255, 255); opacity: 0.6; isolation: isolate; transform-origin: 242.52px 408.635px;" class="animable" id="eluj5lwepgst"></rect></g><path d="M103.1,412.45H381.95a1.33,1.33,0,0,1,1.33,1.33v2.08a0,0,0,0,1,0,0H101.77a0,0,0,0,1,0,0v-2.08A1.33,1.33,0,0,1,103.1,412.45Z" style="fill: rgb(38, 50, 56); transform-origin: 242.525px 414.155px;" id="elixuvha70t6i" class="animable"></path><g id="elf92eq4027f"><path d="M103.1,412.45H381.95a1.33,1.33,0,0,1,1.33,1.33v2.08a0,0,0,0,1,0,0H101.77a0,0,0,0,1,0,0v-2.08A1.33,1.33,0,0,1,103.1,412.45Z" style="fill: rgb(255, 255, 255); opacity: 0.2; isolation: isolate; transform-origin: 242.525px 414.155px;" class="animable" id="eljslhnmxt11k"></path></g><g id="el09honnv2o4fu"><rect x="101.77" y="252.08" width="281.51" height="6.07" rx="1.92" style="fill: rgb(255, 255, 255); opacity: 0.2; isolation: isolate; transform-origin: 242.525px 255.115px;" class="animable" id="elv83t1ob9eg"></rect></g><path d="M148.39,231.18V219.44h-2.87v11.74a3.34,3.34,0,0,1-1.47,2.78h0a3.36,3.36,0,0,0-1.48,2.79v15.3h8.78v-15.3a3.39,3.39,0,0,0-1.48-2.79h0A3.35,3.35,0,0,1,148.39,231.18Z" style="fill: #F9C015; transform-origin: 146.96px 235.745px;" id="elbyv5nhr2g0a" class="animable"></path><g id="els28p0hvcosa"><path d="M148.39,231.18V219.44h-2.87v11.74a3.34,3.34,0,0,1-1.47,2.78h0a3.36,3.36,0,0,0-1.48,2.79v15.3h8.78v-15.3a3.39,3.39,0,0,0-1.48-2.79h0A3.35,3.35,0,0,1,148.39,231.18Z" style="fill: rgb(255, 255, 255); opacity: 0.6; transform-origin: 146.96px 235.745px;" class="animable" id="elj6hsvwm3x3e"></path></g><rect x="145.39" y="218.73" width="3.13" height="2.16" style="fill: #F9C015; transform-origin: 146.955px 219.81px;" id="elvkak8pqrmp" class="animable"></rect><rect x="142.63" y="240.72" width="5.37" height="8.55" style="fill: #F9C015; transform-origin: 145.315px 244.995px;" id="el8qy3dxt6iem" class="animable"></rect><path d="M240.53,231.18V219.44h2.87v11.74a3.33,3.33,0,0,0,1.48,2.78h0a3.38,3.38,0,0,1,1.47,2.79v15.3h-8.77v-15.3a3.38,3.38,0,0,1,1.47-2.79h0A3.33,3.33,0,0,0,240.53,231.18Z" style="fill: #F9C015; transform-origin: 241.965px 235.745px;" id="eldg71nwows3b" class="animable"></path><g id="el3poewbtev2p"><path d="M240.53,231.18V219.44h2.87v11.74a3.33,3.33,0,0,0,1.48,2.78h0a3.38,3.38,0,0,1,1.47,2.79v15.3h-8.77v-15.3a3.38,3.38,0,0,1,1.47-2.79h0A3.33,3.33,0,0,0,240.53,231.18Z" style="fill: rgb(255, 255, 255); opacity: 0.6; transform-origin: 241.965px 235.745px;" class="animable" id="elvp92ccpxd99"></path></g><g id="elgp6vm8sw7g"><rect x="240.4" y="218.73" width="3.13" height="2.16" style="fill: #F9C015; transform-origin: 241.965px 219.81px; transform: rotate(180deg);" class="animable" id="elgub8351dueg"></rect></g><g id="elabexc4p0e14"><rect x="240.92" y="240.72" width="5.37" height="8.55" style="fill: #F9C015; transform-origin: 243.605px 244.995px; transform: rotate(180deg);" class="animable" id="ele8f2t2hjgdr"></rect></g></g><g id="freepik--Chair--inject-6" class="animable" style="transform-origin: 96.49px 354.79px;"><rect x="94.48" y="296.61" width="4.02" height="119.25" style="fill: rgb(38, 50, 56); transform-origin: 96.49px 356.235px;" id="elkqajt9ieb5" class="animable"></rect><g id="elw5s27hjxpp9"><rect x="94.48" y="296.62" width="4.02" height="119.25" style="fill: rgb(255, 255, 255); opacity: 0.4; isolation: isolate; transform-origin: 96.49px 356.245px;" class="animable" id="elqpzu403ksh"></rect></g><rect x="74.62" y="363.81" width="43.75" height="4.7" style="fill: rgb(38, 50, 56); transform-origin: 96.495px 366.16px;" id="elxi4c52gkyg8" class="animable"></rect><g id="el15w28gel1y1"><rect x="74.62" y="363.81" width="43.75" height="4.7" style="fill: rgb(255, 255, 255); opacity: 0.4; isolation: isolate; transform-origin: 96.495px 366.16px;" class="animable" id="el39faehhnes4"></rect></g><polygon points="123.21 415.86 115.92 298.36 111.73 298.36 119.02 415.86 123.21 415.86" style="fill: rgb(38, 50, 56); transform-origin: 117.47px 357.11px;" id="el8kc09qtee5c" class="animable"></polygon><polygon points="73.97 415.86 81.25 298.36 77.06 298.36 69.77 415.86 73.97 415.86" style="fill: rgb(38, 50, 56); transform-origin: 75.51px 357.11px;" id="ell98s3u1iv8" class="animable"></polygon><g id="elrnv5rsle0mk"><g style="opacity: 0.5; isolation: isolate; transform-origin: 96.495px 357.11px;" class="animable" id="elgvvzqc2noa"><polygon points="119.02 415.86 123.21 415.86 116.31 304.77 115.92 298.36 111.73 298.36 112.18 305.66 119.02 415.86" style="fill: rgb(255, 255, 255); transform-origin: 117.47px 357.11px;" id="elgf6szl59oou" class="animable"></polygon><polygon points="73.97 415.86 80.59 309.03 81.25 298.36 77.06 298.36 76.39 309.24 69.78 415.86 73.97 415.86" style="fill: rgb(255, 255, 255); transform-origin: 75.515px 357.11px;" id="elpxskk4drzv7" class="animable"></polygon></g></g><g id="el06bvevoxrkov"><path d="M77.06,298.36h4.19L80.59,309l-4.2.21Z" style="opacity: 0.2; isolation: isolate; transform-origin: 78.82px 303.785px;" class="animable" id="elubcm7a4d3y"></path></g><g id="elom8a8to68z"><path d="M116.32,304.77c-1.32.32-2.69.61-4.14.89l-.45-7.3h4.19Z" style="opacity: 0.2; isolation: isolate; transform-origin: 114.025px 302.01px;" class="animable" id="eln7jcxr0eukh"></path></g><g id="el2vdcn8nayqb"><polygon points="98.5 296.62 98.5 323.56 94.48 324.66 94.48 296.62 98.5 296.62" style="opacity: 0.2; isolation: isolate; transform-origin: 96.49px 310.64px;" class="animable" id="elxoe2wr88nl"></polygon></g><path d="M118.5,299.57h-44a2.93,2.93,0,0,1-2.93-2.93h0a2.93,2.93,0,0,1,2.93-2.93h44a2.93,2.93,0,0,1,2.93,2.93h0A2.93,2.93,0,0,1,118.5,299.57Z" style="fill: rgb(38, 50, 56); transform-origin: 96.5px 296.64px;" id="elqkpo9dxovab" class="animable"></path></g><g id="freepik--character-2--inject-6" class="animable" style="transform-origin: 289.216px 305.435px;"><rect x="305.64" y="296.61" width="4.02" height="119.25" style="fill: rgb(38, 50, 56); transform-origin: 307.65px 356.235px;" id="eli7zdp84j41" class="animable"></rect><g id="elgfmfulvtaz"><rect x="305.64" y="296.62" width="4.02" height="119.25" style="fill: rgb(255, 255, 255); opacity: 0.4; isolation: isolate; transform-origin: 307.65px 356.245px;" class="animable" id="elqvbmyegkwsj"></rect></g><rect x="285.77" y="363.81" width="43.75" height="4.7" style="fill: rgb(38, 50, 56); transform-origin: 307.645px 366.16px;" id="elb6yx6fmqt6" class="animable"></rect><g id="elt6maieh83a"><rect x="285.77" y="363.81" width="43.75" height="4.7" style="fill: rgb(255, 255, 255); opacity: 0.4; isolation: isolate; transform-origin: 307.645px 366.16px;" class="animable" id="elgldm18talmb"></rect></g><polygon points="334.37 415.86 327.08 298.36 322.89 298.36 330.18 415.86 334.37 415.86" style="fill: rgb(38, 50, 56); transform-origin: 328.63px 357.11px;" id="el5li92v70wi8" class="animable"></polygon><polygon points="285.12 415.86 292.41 298.36 288.22 298.36 280.93 415.86 285.12 415.86" style="fill: rgb(38, 50, 56); transform-origin: 286.67px 357.11px;" id="elaabiu07qvt" class="animable"></polygon><g id="eldqzdxxiz8h"><g style="opacity: 0.5; isolation: isolate; transform-origin: 307.645px 357.11px;" class="animable" id="el86q0ztevcvn"><polygon points="330.18 415.86 334.36 415.86 327.47 304.77 327.08 298.36 322.89 298.36 323.34 305.66 330.18 415.86" style="fill: rgb(255, 255, 255); transform-origin: 328.625px 357.11px;" id="elg55kk6v3pyu" class="animable"></polygon><polygon points="285.12 415.86 291.74 309.03 292.41 298.36 288.22 298.36 287.55 309.24 280.93 415.86 285.12 415.86" style="fill: rgb(255, 255, 255); transform-origin: 286.67px 357.11px;" id="ell04zko3566" class="animable"></polygon></g></g><g id="elnmq5zry1y4q"><path d="M288.22,298.36h4.19L291.74,309l-4.2.21Z" style="opacity: 0.2; isolation: isolate; transform-origin: 289.975px 303.785px;" class="animable" id="el4beftgzk5fy"></path></g><g id="el11gm051ffu0a"><path d="M327.47,304.77c-1.31.32-2.69.61-4.13.89l-.45-7.3h4.19Z" style="opacity: 0.2; isolation: isolate; transform-origin: 325.18px 302.01px;" class="animable" id="elf0hxq0q1cnv"></path></g><g id="elu62x919oz58"><polygon points="309.66 296.62 309.66 323.56 305.64 324.66 305.64 296.62 309.66 296.62" style="opacity: 0.2; isolation: isolate; transform-origin: 307.65px 310.64px;" class="animable" id="eljoy6hhfb4ed"></polygon></g><path d="M329.66,299.57h-44a2.93,2.93,0,0,1-2.93-2.93h0a2.93,2.93,0,0,1,2.93-2.93h44a2.93,2.93,0,0,1,2.93,2.93h0A2.93,2.93,0,0,1,329.66,299.57Z" style="fill: rgb(38, 50, 56); transform-origin: 307.66px 296.64px;" id="elps5lzpnrvpn" class="animable"></path><path d="M321,208.36c-.22,4.71.51,7,3.91,18.88s-1.86,17.74-15.77,17.21S295,211.07,298.36,204.53,321,208.36,321,208.36Z" style="fill: rgb(38, 50, 56); transform-origin: 311.24px 223.425px;" id="elay015n3fd16" class="animable"></path><path d="M296.63,226.89c-2.39,0-8.51,19.74-9.63,20.38s-9.68-10-9.68-10v-2.72c0-.75-6.2-4.16-6.2-4.16s-3.09,7.38-1.79,8.59,4.94,2.24,5.21,2.05c0,0,7.38,11.44,11.55,12.74s13.37-17.65,13.37-17.65Z" style="fill: rgb(228, 137, 123); transform-origin: 284.235px 240.362px;" id="eld6y9kxdpal7" class="animable"></path><polygon points="252.11 336.63 256.74 337.74 259.08 331.36 261.2 325.55 255.94 323.31 253.91 330.35 252.11 336.63" style="fill: rgb(228, 137, 123); transform-origin: 256.655px 330.525px;" id="elib4frud3l7i" class="animable"></polygon><g id="ellx1y1aoaqjm"><polygon points="253.91 330.35 259.08 331.36 261.2 325.55 255.94 323.31 253.91 330.35" style="opacity: 0.2; isolation: isolate; transform-origin: 257.555px 327.335px;" class="animable" id="elvjd5efexkuo"></polygon></g><path d="M254.37,327l6.42,2.39s17.1-42.77,20.62-42.92,39.3,16.31,48.28,7.18-4-31.1-4-31.1l-.77-4.11-23.05.75.61,5.15a34.76,34.76,0,0,0-.91,4.37c-.25,1.49-.41,2.74-.41,2.74h0c-.67-.17-22.33-5.76-30.86,0S254.37,327,254.37,327Z" style="fill: #F9C015; transform-origin: 293.613px 293.915px;" id="elg4b6xv8q7qd" class="animable"></path><polygon points="291.25 354.87 295.86 353.69 294.98 347.08 294.15 341.02 288.45 341.53 289.93 348.59 291.25 354.87" style="fill: rgb(228, 137, 123); transform-origin: 292.155px 347.945px;" id="elw7juk4agr2" class="animable"></polygon><g id="eltnx1254ch0e"><polygon points="289.97 348.74 295.01 347.21 294.17 341.08 288.46 341.56 289.97 348.74" style="opacity: 0.2; isolation: isolate; transform-origin: 291.735px 344.91px;" class="animable" id="ell3l5b0mf75"></polygon></g><g id="eljvfjpnyut5"><g style="opacity: 0.7; transform-origin: 293.613px 293.915px;" class="animable" id="elplpynml30o"><path d="M254.37,327l6.42,2.39s17.1-42.77,20.62-42.92,39.3,16.31,48.28,7.18-4-31.1-4-31.1l-.77-4.11-23.05.75.61,5.15a34.76,34.76,0,0,0-.91,4.37c-.25,1.49-.41,2.74-.41,2.74h0c-.67-.17-22.33-5.76-30.86,0S254.37,327,254.37,327Z" style="fill: rgb(255, 255, 255); transform-origin: 293.613px 293.915px;" id="el0ch8431gte3" class="animable"></path></g></g><path d="M314.19,295.82s-1.46,0-24.09-1c0,0,3.38,28.3,5.22,49.48l-6.76,1.15s-16.17-45.35-16-52.56,8.44-9.31,8.44-9.31S297.12,292.87,314.19,295.82Z" style="fill: #F9C015; transform-origin: 293.374px 314.515px;" id="eldj1ipkfhwwg" class="animable"></path><g id="eldz5y3awuxlu"><path d="M314.19,295.82s-1.46,0-24.09-1c0,0,3.38,28.3,5.22,49.48l-6.76,1.15s-16.17-45.35-16-52.56,8.44-9.31,8.44-9.31S297.12,292.87,314.19,295.82Z" style="fill: rgb(255, 255, 255); opacity: 0.5; transform-origin: 293.374px 314.515px;" class="animable" id="el4k29eynwxni"></path></g><g id="elllbw4amsfe"><path d="M301.16,271.43l12.62,2.63a75.55,75.55,0,0,0-12.21-5.37C301.32,270.18,301.16,271.43,301.16,271.43Z" style="opacity: 0.2; isolation: isolate; transform-origin: 307.47px 271.375px;" class="animable" id="elsg7hl3dj5uc"></path></g><polygon points="318.83 263.06 325.68 262.53 325.16 259.17 318.46 259.51 318.83 263.06" id="elloa6u3ji70r" class="animable" style="transform-origin: 322.07px 261.115px;"></polygon><polygon points="303.08 260.29 301.87 260.35 302.48 264.32 303.48 264.24 303.08 260.29" id="elqt7ftfnel57" class="animable" style="transform-origin: 302.675px 262.305px;"></polygon><polygon points="304.63 264.15 317.68 263.15 317.31 259.57 304.23 260.23 304.63 264.15" id="el9taop76z9rc" class="animable" style="transform-origin: 310.955px 261.86px;"></polygon><g id="eli8zl8g7fm7"><rect x="307.4" y="259.93" width="5.09" height="3.86" rx="0.44" style="fill: rgb(255, 255, 255); transform-origin: 309.945px 261.86px; transform: rotate(176.32deg);" class="animable" id="el007l39wr37teh"></rect></g><path d="M244.46,345.61a6.17,6.17,0,0,1,2.23-.57h0s2.67-1.57,5.32-7.68h3a2.45,2.45,0,0,1,2.29,1.63,1.15,1.15,0,0,1,.08.41,15.53,15.53,0,0,1-.23,2.15,57.52,57.52,0,0,1-1.74,7l-.5-.13.92-4.44c.3-1.51-1.28-.05-2,1.47s-1.86,3.05-5.15,2.3C244.8,346.85,243.26,346.3,244.46,345.61Z" style="fill: rgb(38, 50, 56); transform-origin: 250.721px 342.955px;" id="eljrnean4nfh" class="animable"></path><path d="M252.55,335.76s-3.72,7.78-5.86,9.28c0,0,2.87,1.71,5.86-2.1,3.86-4.92,4.8-3.55,4.8-3.55a13.77,13.77,0,0,0-.46-2.5C256.31,335.3,252.55,335.76,252.55,335.76Z" style="fill: rgb(228, 137, 123); transform-origin: 252.02px 340.56px;" id="eloarpsvrbn1f" class="animable"></path><path d="M285.39,364.13a6.62,6.62,0,0,1,2-1.08h0s2.22-2.16,3.35-8.72l2.89-.72a2.45,2.45,0,0,1,2.6,1.05,1.46,1.46,0,0,1,.18.38,15.5,15.5,0,0,1,.29,2.14,58.77,58.77,0,0,1,0,7.21h-.52l-.16-4.53c-.06-1.54-1.26.25-1.61,1.9s-1.09,3.41-4.46,3.46C286,365.26,284.39,365.09,285.39,364.13Z" style="fill: rgb(38, 50, 56); transform-origin: 290.956px 359.387px;" id="elkdl51k6uizd" class="animable"></path><path d="M290.91,352.65s-1.76,8.44-3.49,10.4c0,0,3.2,1,5.19-3.42,2.59-5.7,3.83-4.59,3.83-4.59a13.57,13.57,0,0,0-1-2.33C294.46,351.31,290.91,352.65,290.91,352.65Z" style="fill: rgb(228, 137, 123); transform-origin: 291.93px 357.609px;" id="elsiom4iubht" class="animable"></path><path d="M299.27,207.39s-1-15.46,12.57-11.84c17.06,4.53,7.15,25-1.25,22.41S299.27,207.39,299.27,207.39Z" style="fill: rgb(38, 50, 56); transform-origin: 310.221px 206.593px;" id="ellnzb2izr5h" class="animable"></path><path d="M324.91,258.41l-23,1.23s-4.71-13.42-6.38-24.71a53.1,53.1,0,0,1-.57-5.46s0-2.74,1.65-2.58c7.14.69,14.31-.86,19.2-1.35.58,0,1.13-.1,1.64-.12a4,4,0,0,1,4.18,4.14C321.51,234.8,322.07,242.53,324.91,258.41Z" style="fill: #F9C015; transform-origin: 309.935px 242.528px;" id="elulu4w6m2y" class="animable"></path><path d="M304,226.62a5.36,5.36,0,0,1,.67-.39c.49-.49,1-1.58.69-4.06a20.72,20.72,0,0,0-.62-2.87l6.73-2.11s-1.79,4.92.59,8.12c.71.22,1.23.6,1.16,1.17-.32,2.52-7.28,6.35-7.28,6.35S300.15,229.4,304,226.62Z" style="fill: rgb(228, 137, 123); transform-origin: 307.953px 225.01px;" id="eluqu0lyk343o" class="animable"></path><g id="elyffyx8wo2g"><path d="M304.77,219.3a20.72,20.72,0,0,1,.62,2.87,7.71,7.71,0,0,0,6.11-5Z" style="opacity: 0.2; isolation: isolate; transform-origin: 308.135px 219.67px;" class="animable" id="ellq98icq2vdb"></path></g><path d="M299.91,218.87a3,3,0,0,0,1.56-.75,3,3,0,0,0-.7-4.87.26.26,0,0,0-.35.12.28.28,0,0,0,.12.36,2.45,2.45,0,1,1-1-.25.27.27,0,0,0,0-.53,3,3,0,0,0-3.11,2.84,3,3,0,0,0,2.84,3.11A2.88,2.88,0,0,0,299.91,218.87Z" style="fill: #F9C015; transform-origin: 299.424px 215.927px;" id="elbul1uh3mvgn" class="animable"></path><g id="elxhmn5w0tmba"><g style="opacity: 0.5; transform-origin: 299.424px 215.927px;" class="animable" id="elhczq58swb3d"><path d="M299.91,218.87a3,3,0,0,0,1.56-.75,3,3,0,0,0-.7-4.87.26.26,0,0,0-.35.12.28.28,0,0,0,.12.36,2.45,2.45,0,1,1-1-.25.27.27,0,0,0,0-.53,3,3,0,0,0-3.11,2.84,3,3,0,0,0,2.84,3.11A2.88,2.88,0,0,0,299.91,218.87Z" style="fill: rgb(255, 255, 255); transform-origin: 299.424px 215.927px;" id="elgx7kg9a1cqg" class="animable"></path></g></g><path d="M307.66,199.64c-6-.41-8.12,2.66-9,8.79-1.06,7.67.27,13.25,7.86,12.12C316.85,219,317.59,200.31,307.66,199.64Z" style="fill: rgb(228, 137, 123); transform-origin: 306.522px 210.15px;" id="elas8ev2l76ar" class="animable"></path><path d="M302.57,208.36a12.24,12.24,0,0,1-1.91,2.36,1.66,1.66,0,0,0,1.53.79Z" style="fill: rgb(222, 87, 83); transform-origin: 301.615px 209.937px;" id="el1yaqsv4o444j" class="animable"></path><path d="M306.26,208.12c0,.49.19.91.52.94s.62-.34.67-.83-.19-.91-.51-.94S306.31,207.63,306.26,208.12Z" style="fill: rgb(38, 50, 56); transform-origin: 306.858px 208.175px;" id="el39b1xsfkckl" class="animable"></path><path d="M307.07,207.32l-1-.51S306.49,207.75,307.07,207.32Z" style="fill: rgb(38, 50, 56); transform-origin: 306.57px 207.121px;" id="elah10divblf7" class="animable"></path><path d="M300.18,207.46c-.05.49.18.91.51.94s.63-.34.67-.83-.18-.91-.51-.94S300.22,207,300.18,207.46Z" style="fill: rgb(38, 50, 56); transform-origin: 300.769px 207.515px;" id="elwhl4riamh2" class="animable"></path><path d="M301,206.66l-1-.51S300.41,207.1,301,206.66Z" style="fill: rgb(38, 50, 56); transform-origin: 300.5px 206.463px;" id="elz1n31jaohm" class="animable"></path><path d="M309.14,205.44a.37.37,0,0,1-.3-.16,2.69,2.69,0,0,0-2.21-.92.37.37,0,0,1-.39-.34.37.37,0,0,1,.34-.39,3.47,3.47,0,0,1,2.85,1.24.35.35,0,0,1-.09.5A.31.31,0,0,1,309.14,205.44Z" style="fill: rgb(38, 50, 56); transform-origin: 307.869px 204.532px;" id="elx3pbjdmb1j" class="animable"></path><path d="M299.86,204.14a.36.36,0,0,1-.32-.18.37.37,0,0,1,.14-.5,3.15,3.15,0,0,1,2.74-.34.35.35,0,0,1,.18.48.36.36,0,0,1-.47.18,2.43,2.43,0,0,0-2.09.31A.31.31,0,0,1,299.86,204.14Z" style="fill: rgb(38, 50, 56); transform-origin: 301.065px 203.545px;" id="elltdsxabq53" class="animable"></path><path d="M313.51,210.15s-2.46-5.1-1.78-8.86c0,0-11.52-5.64-12.92,6.35,0,0-.44-10.76,9.86-10.31s9.23,15.5,3.62,19.62C312.29,217,315,213.34,313.51,210.15Z" style="fill: rgb(38, 50, 56); transform-origin: 307.646px 207.133px;" id="elj5r88at6xxp" class="animable"></path><path d="M312.45,211.35a2.63,2.63,0,0,1,3-2.2c1.84.32,2.46,4.19-2.21,4.79C312.56,214,312.23,213.35,312.45,211.35Z" style="fill: rgb(228, 137, 123); transform-origin: 314.603px 211.532px;" id="el5367laprq0a" class="animable"></path><path d="M301.49,213.86a15.78,15.78,0,0,1,.63,2.11c.13,0,.26,0,.38,0,1.75-.11,2.53-.74,2.85-1.41a2.19,2.19,0,0,0,.21-1.05,1.94,1.94,0,0,0-.09-.6,8.19,8.19,0,0,1-3.38.93Z" style="fill: rgb(38, 50, 56); transform-origin: 303.526px 214.44px;" id="elyr6m5u2ooi" class="animable"></path><path d="M302.09,213.81l.2.62c1.65-.11,2.79-.41,3.27-1a1.94,1.94,0,0,0-.09-.6A8.19,8.19,0,0,1,302.09,213.81Z" style="fill: rgb(255, 255, 255); transform-origin: 303.825px 213.63px;" id="elmymel29zaqs" class="animable"></path><path d="M302.5,215.94c1.75-.11,2.53-.74,2.85-1.41a5.81,5.81,0,0,0-1.91.52A2.14,2.14,0,0,0,302.5,215.94Z" style="fill: rgb(222, 87, 83); transform-origin: 303.925px 215.235px;" id="elv2e8wb5kb4h" class="animable"></path><path d="M307.75,200.1s1.75,10,7.95,10.29-2.52-12.81-2.52-12.81-9.85-4.5-15.2.53.83,9.53.83,9.53S298.94,200,307.75,200.1Z" style="fill: rgb(38, 50, 56); transform-origin: 306.863px 203.062px;" id="el873e7a7g6st" class="animable"></path><path d="M311.42,209a.28.28,0,0,1-.13,0c-4.84-2.75-3.69-9.55-3.68-9.62a.26.26,0,0,1,.29-.21.25.25,0,0,1,.2.29c0,.07-1.09,6.53,3.44,9.1a.25.25,0,0,1-.12.47Z" style="fill: rgb(38, 50, 56); transform-origin: 309.578px 204.099px;" id="el5yuzmm4ijtc" class="animable"></path><path d="M314.82,219a2.92,2.92,0,0,0,1.55-.74,3,3,0,0,0-.69-4.87.26.26,0,0,0-.23.47,2.45,2.45,0,0,1-1.19,4.65,2.4,2.4,0,0,1-1.7-.8,2.38,2.38,0,0,1-.64-1.76,2.45,2.45,0,0,1,2.55-2.34.26.26,0,1,0,0-.52,3,3,0,0,0-3.11,2.84,2.93,2.93,0,0,0,.78,2.14,3,3,0,0,0,2.65.93Z" style="fill: #F9C015; transform-origin: 314.34px 216.061px;" id="el4vhzklrz2fs" class="animable"></path><g id="elif6vpq3hv18"><g style="opacity: 0.5; transform-origin: 314.34px 216.061px;" class="animable" id="elwnx1vp4634d"><path d="M314.82,219a2.92,2.92,0,0,0,1.55-.74,3,3,0,0,0-.69-4.87.26.26,0,0,0-.23.47,2.45,2.45,0,0,1-1.19,4.65,2.4,2.4,0,0,1-1.7-.8,2.38,2.38,0,0,1-.64-1.76,2.45,2.45,0,0,1,2.55-2.34.26.26,0,1,0,0-.52,3,3,0,0,0-3.11,2.84,2.93,2.93,0,0,0,.78,2.14,3,3,0,0,0,2.65.93Z" style="fill: rgb(255, 255, 255); transform-origin: 314.34px 216.061px;" id="elih1py2qpxmp" class="animable"></path></g></g><polygon points="263.43 327 254.1 323.82 253.7 327.65 260.78 330.15 263.43 327" style="fill: #F9C015; transform-origin: 258.565px 326.985px;" id="elma41e6ackxq" class="animable"></polygon><polygon points="296.31 342.23 287.01 343.29 288.81 346.93 296.34 345.97 296.31 342.23" style="fill: #F9C015; transform-origin: 291.675px 344.58px;" id="el1udcmmy7w0l" class="animable"></polygon><path d="M318.46,228.21c-.4.74-.78,24.37-2,25.62s-20,13.68-20,13.68a42.69,42.69,0,0,1-5.11-1.08c-.93-.42-4.44,2.62-4.44,2.62s8.91,2,9.55,2.37,2.77-1.7,2.77-1.7,21.18-10.4,21.94-11.87S324.92,230,324.92,230Z" style="fill: rgb(228, 137, 123); transform-origin: 305.915px 249.837px;" id="elzbc615w3gan" class="animable"></path><path d="M318.06,225.42c3.24-.37,6.12.47,8.43,8.34l-10.66,4.45Z" style="fill: #F9C015; transform-origin: 321.16px 231.78px;" id="ellcv0xyz8ptc" class="animable"></path><path d="M315.83,225.54c-2.95,9.35-16.08,9.57-20.28,9.39a53.1,53.1,0,0,1-.57-5.46s0-2.74,1.65-2.58C303.77,227.58,310.94,226,315.83,225.54Z" style="fill: rgb(228, 137, 123); transform-origin: 305.405px 230.252px;" id="elg5qh5uxf0mu" class="animable"></path><path d="M315.83,225.55a15.33,15.33,0,0,1-9.86,7.28,39.85,39.85,0,0,1-13.86,0l-3,7.74,11.32,6.26S316.85,232.11,315.83,225.55Z" style="fill: #F9C015; transform-origin: 302.493px 236.19px;" id="el6e4dj5138hq" class="animable"></path><path d="M271.58,240.8l-2.52-.2.09-1.09,2.52.21a2.16,2.16,0,0,0,2.31-2l.4-5a2.15,2.15,0,0,0-2-2.31l-2.52-.2.09-1.08,2.52.2a3.24,3.24,0,0,1,3,3.48l-.41,5A3.24,3.24,0,0,1,271.58,240.8Z" style="fill: rgb(38, 50, 56); transform-origin: 272.27px 234.97px;" id="elqukimzy3rb" class="animable"></path><g id="eltqm9ejj6pwk"><g style="opacity: 0.4; transform-origin: 272.27px 234.97px;" class="animable" id="eljylutyvgf7"><path d="M271.58,240.8l-2.52-.2.09-1.09,2.52.21a2.16,2.16,0,0,0,2.31-2l.4-5a2.15,2.15,0,0,0-2-2.31l-2.52-.2.09-1.08,2.52.2a3.24,3.24,0,0,1,3,3.48l-.41,5A3.24,3.24,0,0,1,271.58,240.8Z" style="fill: rgb(255, 255, 255); transform-origin: 272.27px 234.97px;" id="elp1g78zoe44" class="animable"></path></g></g><g id="el73mkislqttc"><rect x="256.62" y="226.86" width="13.34" height="15.82" style="fill: rgb(38, 50, 56); transform-origin: 263.29px 234.77px; transform: rotate(-175.61deg);" class="animable" id="eln5k1k1c59hk"></rect></g><g id="elj3jptavq3tt"><rect x="256.62" y="226.86" width="13.34" height="15.82" style="fill: rgb(255, 255, 255); opacity: 0.6; transform-origin: 263.29px 234.77px; transform: rotate(-175.61deg);" class="animable" id="el53tvcqk6mr7"></rect></g><g id="el15zp4mv1aq5"><path d="M267.43,242.05l1.47.11.65-8.34a.75.75,0,0,0-.69-.8h0a.74.74,0,0,0-.79.68Z" style="opacity: 0.1; isolation: isolate; transform-origin: 268.491px 237.589px;" class="animable" id="elasfmqtghhm5"></path></g><g id="ellrhso7mtlh"><path d="M263.83,241.77l1.47.11.64-8.34a.75.75,0,0,0-.68-.8h0a.74.74,0,0,0-.79.69Z" style="opacity: 0.1; isolation: isolate; transform-origin: 264.886px 237.309px;" class="animable" id="elg97pugavh6k"></path></g><g id="elicvaf94uf4a"><path d="M260.22,241.49l1.48.12.64-8.35a.73.73,0,0,0-.68-.79h0a.75.75,0,0,0-.8.68Z" style="opacity: 0.1; isolation: isolate; transform-origin: 261.281px 237.039px;" class="animable" id="elrz4cj5q9rzc"></path></g><g id="els8toa7xbc1h"><path d="M256.62,241.22l1.47.11.64-8.34a.73.73,0,0,0-.68-.8h0a.74.74,0,0,0-.79.68Z" style="opacity: 0.1; isolation: isolate; transform-origin: 257.677px 236.759px;" class="animable" id="elf36zkqcbtsl"></path></g><g id="el0tpa2u1aeoh"><rect x="256.98" y="225.68" width="13.88" height="1.93" style="fill: rgb(38, 50, 56); transform-origin: 263.92px 226.645px; transform: rotate(-175.61deg);" class="animable" id="el3pjqjz3gg3k"></rect></g><g id="elyi695xdrc6"><rect x="255.77" y="241.48" width="13.88" height="1.93" style="fill: rgb(38, 50, 56); transform-origin: 262.71px 242.445px; transform: rotate(-175.61deg);" class="animable" id="elp1o1jnn7qdh"></rect></g><g id="eluym2anuzhl"><rect x="256.98" y="225.68" width="13.88" height="1.93" style="fill: rgb(255, 255, 255); opacity: 0.5; transform-origin: 263.92px 226.645px; transform: rotate(-175.61deg);" class="animable" id="elxv7omm5dg0s"></rect></g><g id="elcps71luqyc9"><rect x="255.77" y="241.48" width="13.88" height="1.93" style="fill: rgb(255, 255, 255); opacity: 0.5; transform-origin: 262.71px 242.445px; transform: rotate(-175.61deg);" class="animable" id="el8m6b3aok1xy"></rect></g><path d="M256.75,225.56a4.57,4.57,0,0,0-.48-.35,1.52,1.52,0,0,1-.51-1,1.58,1.58,0,0,1,.15-1.13,2.17,2.17,0,0,1,.77-.6h0c.72.31,1.53-.83,1.23-1.26a1,1,0,0,1-.1-.69.35.35,0,0,1,0-.11.57.57,0,0,1,.11-.16,1.87,1.87,0,0,1,.48-.33,1.44,1.44,0,0,1,1.22.08c.66,1.17,2.77.21,3.81-.81s2.49.67,3.29,2.44,1.4-.62,2.74-.12,1.15,3.14,1.15,3.14a1.14,1.14,0,0,1-.12,2,1,1,0,0,1-1.27-.39l-1.12-.06c0,.65-.93,2.21-1.88,1.89s-.08,1-1.43,1.42-.92-.8-1.44-1.26-.47.73-.27,2.08-.42,1.7-.94,1.41-.05-2.32,0-3.08-.39-1.11-1.38-1.79-.42-1.15-.42-1.15l-3.33-.19A1.79,1.79,0,0,1,256.75,225.56Z" style="fill: #F9C015; transform-origin: 263.431px 225.368px;" id="elh6audvsbzh" class="animable"></path><g id="elafg0hbzmj8p"><path d="M256.75,225.56a4.57,4.57,0,0,0-.48-.35,1.52,1.52,0,0,1-.51-1,1.58,1.58,0,0,1,.15-1.13,2.17,2.17,0,0,1,.77-.6h0c.72.31,1.53-.83,1.23-1.26a1,1,0,0,1-.1-.69.35.35,0,0,1,0-.11.57.57,0,0,1,.11-.16,1.87,1.87,0,0,1,.48-.33,1.44,1.44,0,0,1,1.22.08c.66,1.17,2.77.21,3.81-.81s2.49.67,3.29,2.44,1.4-.62,2.74-.12,1.15,3.14,1.15,3.14a1.14,1.14,0,0,1-.12,2,1,1,0,0,1-1.27-.39l-1.12-.06c0,.65-.93,2.21-1.88,1.89s-.08,1-1.43,1.42-.92-.8-1.44-1.26-.47.73-.27,2.08-.42,1.7-.94,1.41-.05-2.32,0-3.08-.39-1.11-1.38-1.79-.42-1.15-.42-1.15l-3.33-.19A1.79,1.79,0,0,1,256.75,225.56Z" style="fill: rgb(255, 255, 255); opacity: 0.7; transform-origin: 263.431px 225.368px;" class="animable" id="elbewhy81jzqb"></path></g></g><g id="freepik--character-1--inject-6" class="animable" style="transform-origin: 191.731px 297.315px;"><g id="freepik--group--inject-6" class="animable" style="transform-origin: 191.731px 297.315px;"><path d="M165.13,217.66s-8.85,2-7.92,6.45,11.77,0,11.77,0Z" style="fill: rgb(235, 179, 118); transform-origin: 163.061px 221.874px;" id="el9m0vhfss6rj" class="animable"></path><g id="elq2uf2ut69rl"><path d="M165.13,217.66s-8.85,2-7.92,6.45,11.77,0,11.77,0Z" style="opacity: 0.2; isolation: isolate; transform-origin: 163.061px 221.874px;" class="animable" id="elg9pjrubi15g"></path></g><path d="M181,210.12c-4.82.4-17.81,7-17.81,7l2.8,10.21,11.28-2.18Z" style="fill: rgb(38, 50, 56); transform-origin: 172.095px 218.725px;" id="elpcqs1h29cw" class="animable"></path><polygon points="193.27 401.43 187.37 404.82 180.29 391.98 186.19 388.58 193.27 401.43" style="fill: rgb(238, 193, 187); transform-origin: 186.78px 396.7px;" id="eld01l7t5hbwt" class="animable"></polygon><path d="M186.65,404.06l6.56-4.17a.56.56,0,0,1,.71.06l4,4.11a1,1,0,0,1-.11,1.39,1,1,0,0,1-.16.12c-2.29,1.4-3.54,2-6.39,3.85-1.76,1.11-9.19,5.11-11.94,5.3s-3.05-2.41-1.93-2.82c5.64-2.11,7.84-4.8,8.56-6.91A1.89,1.89,0,0,1,186.65,404.06Z" style="fill: rgb(38, 50, 56); transform-origin: 187.465px 407.26px;" id="elwttwbdst1" class="animable"></path><g id="elgmuxx7lj4en"><polygon points="186.19 388.58 180.29 391.98 183.94 398.6 189.85 395.2 186.19 388.58" style="opacity: 0.2; isolation: isolate; transform-origin: 185.07px 393.59px;" class="animable" id="el8gbt2h1c606"></polygon></g><path d="M169.71,250.74s-19.33,64.07-18.27,83.11c1.16,20.88,29.23,64.79,29.23,64.79L191.25,392s-19.82-43.27-20.57-59.29c1.1-23.18,25.19-79.48,25.19-79.48Z" style="fill: #F9C015; transform-origin: 173.634px 324.69px;" id="elzegizp3ndxr" class="animable"></path><g id="el42cb84em8s6"><path d="M185.05,273.26c-5.85,3.57-8.16,18.82-6.93,26.56,3.16-9.8,6.77-19.47,9.66-26.87A2.71,2.71,0,0,0,185.05,273.26Z" style="opacity: 0.2; isolation: isolate; transform-origin: 182.79px 286.268px;" class="animable" id="elmd123i6081j"></path></g><polygon points="179.5 399.66 191.97 391.76 189.92 388.25 176.85 396.22 179.5 399.66" style="fill: #F9C015; transform-origin: 184.41px 393.955px;" id="elafdh8bakhrd" class="animable"></polygon><path d="M185.3,406.23a2.18,2.18,0,0,1-1.28.42.83.83,0,0,1-.68-.5.52.52,0,0,1,0-.51c.47-.72,3-.83,3.24-.83a.12.12,0,0,1,.14.08.2.2,0,0,1,0,.18A9.53,9.53,0,0,1,185.3,406.23Zm-1.52-.59a.57.57,0,0,0-.16.15.18.18,0,0,0,0,.2.52.52,0,0,0,.46.35,3.43,3.43,0,0,0,2.1-1.2A6.82,6.82,0,0,0,183.78,405.64Z" style="fill: #F9C015; transform-origin: 185.007px 405.729px;" id="elaqal38cwmpi" class="animable"></path><path d="M186.67,405.1h-.08c-.77.07-2.63-.39-2.86-1.08a.53.53,0,0,1,.24-.61.93.93,0,0,1,.68-.21c1,.1,2,1.58,2.07,1.67a.15.15,0,0,1,0,.16A.18.18,0,0,1,186.67,405.1Zm-2.46-1.47-.06,0c-.16.13-.13.22-.12.26.13.4,1.4.84,2.24.89-.34-.42-1.06-1.22-1.67-1.28a.6.6,0,0,0-.39.09Z" style="fill: #F9C015; transform-origin: 185.225px 404.152px;" id="elv29vfp9j5d" class="animable"></path><polygon points="206.14 409.15 199.58 409.15 199.03 393.94 205.61 393.94 206.14 409.15" style="fill: rgb(238, 193, 187); transform-origin: 202.585px 401.545px;" id="elhsss9ec1irv" class="animable"></polygon><path d="M198.67,408.39h8a.58.58,0,0,1,.56.45l1.3,5.85a1,1,0,0,1-.75,1.14.76.76,0,0,1-.21,0c-2.58-.05-4.46-.21-7.7-.21-2,0-8,.21-10.78.21s-3.11-2.72-2-3c5.06-1.1,8.86-2.63,10.48-4.08A1.57,1.57,0,0,1,198.67,408.39Z" style="fill: rgb(38, 50, 56); transform-origin: 197.521px 412.112px;" id="el0e45k3rng0je" class="animable"></path><g id="eljrn4tdxyt6"><polygon points="205.61 393.95 199.03 393.95 199.32 401.79 205.89 401.79 205.61 393.95" style="opacity: 0.2; isolation: isolate; transform-origin: 202.46px 397.87px;" class="animable" id="el0u60852pcqxo"></polygon></g><path d="M178.67,252.05s5.34,62.76,8.11,81.8c3,20.88,9.52,66.42,9.52,66.42h12s-2.45-43.59-3.59-64.11c-1.3-23.38-1.92-82.13-1.92-82.13Z" style="fill: #F9C015; transform-origin: 193.485px 326.16px;" id="elo4b3uzmsx6" class="animable"></path><polygon points="194.86 400.53 209.02 400.53 209.02 396.3 194.32 396.02 194.86 400.53" style="fill: #F9C015; transform-origin: 201.67px 398.275px;" id="elnmnlqm5556q" class="animable"></polygon><path d="M196.5,409.54a2,2,0,0,1-1.27-.33,1,1,0,0,1-.32-.84.46.46,0,0,1,.27-.43c.72-.38,2.84.93,3.08,1.08a.13.13,0,0,1,.07.15.16.16,0,0,1-.11.13A8.38,8.38,0,0,1,196.5,409.54Zm-1-1.36a.34.34,0,0,0-.2,0s-.09.06-.1.19a.64.64,0,0,0,.21.56,3.2,3.2,0,0,0,2.34.11A6.37,6.37,0,0,0,195.52,408.18Z" style="fill: #F9C015; transform-origin: 196.619px 408.709px;" id="el2r6sediytbr" class="animable"></path><path d="M198.17,409.31h-.07c-.68-.37-2-1.81-1.85-2.51a.5.5,0,0,1,.5-.41.88.88,0,0,1,.66.2c.76.62.91,2.51.92,2.6a.15.15,0,0,1-.07.14Zm-1.32-2.67h-.07c-.2,0-.22.12-.23.16-.08.43.76,1.52,1.43,2a3.64,3.64,0,0,0-.77-2.05A.54.54,0,0,0,196.85,406.64Z" style="fill: #F9C015; transform-origin: 197.284px 407.857px;" id="elhkhdh1v20vu" class="animable"></path><path d="M168.22,254.21l35.11,4.42c4.15-17,12.15-31.46,14.63-37.49a1.73,1.73,0,0,0-.9-2.25c-1.69-.73-3.45-1.42-5.24-2.06a172.71,172.71,0,0,0-24.74-6.6,15.39,15.39,0,0,0-6.13-.11C173.7,224.53,170.08,242.82,168.22,254.21Z" style="fill: rgb(38, 50, 56); transform-origin: 193.157px 234.247px;" id="el7t2ab37knfk" class="animable"></path><polygon points="173.49 259.39 190.14 261.73 190.66 257.66 173.98 255.53 173.49 259.39" id="eln63t0u5bjxc" class="animable" style="transform-origin: 182.075px 258.63px;"></polygon><polygon points="191.93 257.83 191.41 261.91 202.79 263.51 203.33 259.29 191.93 257.83" id="el3nqdv50sz5r" class="animable" style="transform-origin: 197.37px 260.67px;"></polygon><polygon points="172.72 255.37 167.86 254.74 166.92 258.47 172.22 259.22 172.72 255.37" id="elhb5e133ubxr" class="animable" style="transform-origin: 169.82px 256.98px;"></polygon><g id="elnv9oz3od5w"><rect x="177.18" y="256.07" width="6.61" height="4.77" rx="0.52" style="fill: rgb(255, 255, 255); transform-origin: 180.485px 258.455px; transform: rotate(7.3deg);" class="animable" id="elvxyptwob9yf"></rect></g><g id="elfy02yol2eoc"><path d="M215.91,226c-1.22,2.84-2.73,6.39-4.33,10.41-3.18-6,1.3-13.46,1.3-13.46A7.73,7.73,0,0,1,215.91,226Z" style="opacity: 0.2; isolation: isolate; transform-origin: 213.175px 229.68px;" class="animable" id="elw0qw097ng6"></path></g><path d="M205.59,214.92c-3.4,2.38-10.73.4-10.73.4s-4.5-1.87-3.34-3.21c2.81-.09,4.3-1.21,5.06-2.78a8.14,8.14,0,0,0,.68-3.1c0-.26,0-.52,0-.78s0-.66,0-1l10.11-5.66c-.5,1.2-1.05,2.7-1.54,4.31-1.14,3.79-1.92,8.22-.69,11A5.08,5.08,0,0,0,205.59,214.92Z" style="fill: rgb(235, 179, 118); transform-origin: 199.349px 207.441px;" id="elvv0va75geq" class="animable"></path><g id="elaulhpy730gu"><path d="M205.13,214.09a9.17,9.17,0,0,1-7.85-8.64,8.17,8.17,0,0,1,0-1,32.34,32.34,0,0,1,8.57-1.35C204.68,206.9,203.9,211.33,205.13,214.09Z" style="opacity: 0.2; isolation: isolate; transform-origin: 201.557px 208.595px;" class="animable" id="el4dji3vtph98"></path></g><path d="M212.16,184.26s3.26,8.46-.64,12.85-7.5-11.9-7.5-11.9Z" style="fill: rgb(38, 50, 56); transform-origin: 208.728px 191.06px;" id="elraqozixrca" class="animable"></path><path d="M213.74,202c-.06.32-.14.63-.23.94a9.19,9.19,0,0,1-4.14,5.23,8.38,8.38,0,0,1-5.94,1,8.15,8.15,0,0,1-3.86-2c-3.42-3.13-3.52-6.93-4.21-13.34a8.65,8.65,0,0,1,.46-4.07,8.81,8.81,0,0,1,11.27-5.32C213.51,186.58,214.85,196.1,213.74,202Z" style="fill: rgb(235, 179, 118); transform-origin: 204.691px 196.63px;" id="eloksf5cdn8ne" class="animable"></path><path d="M205.21,195c0,.52.32.94.67.92s.6-.46.58-1-.33-.94-.67-.92S205.19,194.51,205.21,195Z" style="fill: rgb(38, 50, 56); transform-origin: 205.835px 194.96px;" id="elri4pu85me2i" class="animable"></path><path d="M211.14,194.76c0,.52.33.93.67.91s.59-.45.57-1-.32-.93-.66-.91S211.12,194.26,211.14,194.76Z" style="fill: rgb(38, 50, 56); transform-origin: 211.76px 194.715px;" id="el4d3q4r1k8rx" class="animable"></path><path d="M209.27,195.11a18.42,18.42,0,0,0,2.72,4.36,3,3,0,0,1-2.5.59Z" style="fill: rgb(213, 135, 69); transform-origin: 210.63px 197.618px;" id="elf2axueawmmo" class="animable"></path><path d="M213.21,192.12a.31.31,0,0,1-.32,0,2.48,2.48,0,0,0-2.22-.15.3.3,0,0,1-.28-.54h0a3,3,0,0,1,2.8.15.31.31,0,0,1,.13.42h0A.57.57,0,0,1,213.21,192.12Z" style="fill: rgb(38, 50, 56); transform-origin: 211.792px 191.659px;" id="elnn2z81x6abs" class="animable"></path><path d="M203.93,192.73a.34.34,0,0,1-.17,0,.31.31,0,0,1,0-.44h0a3,3,0,0,1,2.69-.83.31.31,0,0,1,.22.37h0a.32.32,0,0,1-.37.23h0a2.45,2.45,0,0,0-2.12.69A.34.34,0,0,1,203.93,192.73Z" style="fill: rgb(38, 50, 56); transform-origin: 205.173px 192.086px;" id="elui5zfxkwlh" class="animable"></path><path d="M199.7,185.45l.61,2.8a2.1,2.1,0,0,0-.8,2.75c1.14,2.3.14,6.11-1.54,7.76,0,0-.16-1-1-.7s-.09,5.67,1.85,8.07c0,0-2.79-2.07-4.78-7.57-1.84-5.08-2.42-9.4-1.54-11.52Z" style="fill: rgb(38, 50, 56); transform-origin: 196.203px 195.79px;" id="el2l6w3ii5kmf" class="animable"></path><path d="M192.8,199.12a6.12,6.12,0,0,0,3.66,2.93c2.07.59,3.11-1.26,2.55-3.22-.52-1.74-2.21-4.2-4.3-3.9A2.74,2.74,0,0,0,192.8,199.12Z" style="fill: rgb(235, 179, 118); transform-origin: 195.763px 198.533px;" id="el63qss6zvkyd" class="animable"></path><path d="M209.13,202.73a19.55,19.55,0,0,0-1.85,2.08l-.43-.23c-1.95-1.08-2.49-2.22-2.51-3.16a2.84,2.84,0,0,1,.32-1.31,2.78,2.78,0,0,1,.43-.65,10.46,10.46,0,0,0,3.39,2.89C208.87,202.6,209.13,202.73,209.13,202.73Z" style="fill: rgb(38, 50, 56); transform-origin: 206.735px 202.135px;" id="elz9nbfl9hqzb" class="animable"></path><path d="M208.48,202.35l-.57.6c-1.83-1-3-2-3.25-2.84a2.78,2.78,0,0,1,.43-.65A10.46,10.46,0,0,0,208.48,202.35Z" style="fill: rgb(255, 255, 255); transform-origin: 206.57px 201.205px;" id="elfgggxq5kpho" class="animable"></path><path d="M206.85,204.58c-1.95-1.08-2.49-2.22-2.51-3.16a7.09,7.09,0,0,1,1.92,1.62A2.66,2.66,0,0,1,206.85,204.58Z" style="fill: rgb(222, 87, 83); transform-origin: 205.595px 203px;" id="ele7fzzcpkct" class="animable"></path><path d="M199.16,195.11a7.16,7.16,0,0,0,1.89,4.08s3.18-2.58,7.43.93l-.58.55a3.66,3.66,0,0,0-3.88-1.21c-2.54.66-2.36,5.29-.87,6.4s2.44-.8,2.44-.8l1.77,1.07s-.3,1,0,1.32,3.55-3.69,3.78-4.8-2.41-1.23-2.41-1.23l.54-.75s2.47-.37,3.11.07a1.84,1.84,0,0,1,.77,1.11c.94-.64.94-3.32.94-3.32s1.2,5.64-.34,9.73a6.68,6.68,0,0,1-3.12,3.47,29.64,29.64,0,0,0,1.93-2.79,7.5,7.5,0,0,1-6.39,3.35c-3.33,0-5.32-2-7-6.61S198.38,195.89,199.16,195.11Z" style="fill: rgb(38, 50, 56); transform-origin: 206.375px 203.701px;" id="el3m58g889yi6" class="animable"></path><path d="M198.37,199.46s-1.34,7.33,2.37,10.42a14.85,14.85,0,0,1-1.3-6.77C199.58,199.11,198.37,199.46,198.37,199.46Z" style="fill: rgb(38, 50, 56); transform-origin: 199.437px 204.666px;" id="elctyt3ncby57" class="animable"></path><path d="M200.31,188.25a11.24,11.24,0,0,1,9-.77s2.73-1.35,2.89-3.22-1.81-4.55-3.43-5.12a9.37,9.37,0,0,0-5.06,0l2.7.76s-2.7-.76-6.93,2c-1.61,1.07-6.82.32-8.11,5.56-.64,2.6,1.36,6.58,1.36,6.58Z" style="fill: rgb(38, 50, 56); transform-origin: 201.726px 186.416px;" id="elazzwg7rveqg" class="animable"></path><path d="M226.13,234.25s8.28,11.2,5.28,16.2S207.79,261,207.79,261s.79,3,.39,4.21-3.43,7.11-3.43,7.11l-5.76-5s2.07-5.33,2.48-6.79,3.24-2.49,3.24-2.49,18.8-9.47,19.14-10.73-4-7-4-7Z" style="fill: rgb(235, 179, 118); transform-origin: 215.527px 253.285px;" id="el7py2icw43ls" class="animable"></path><path d="M217.06,218.89c4.88,3.1,13.67,16.64,13.67,16.64l-8.85,7.91-10.09-10.29s-.2-7.22,1.09-10.25A7.72,7.72,0,0,1,217.06,218.89Z" style="fill: rgb(38, 50, 56); transform-origin: 221.254px 231.165px;" id="elk4jc9q7l9nf" class="animable"></path><path d="M189.75,229.71l2.49.42.19-1.07-2.5-.42a2.15,2.15,0,0,1-1.75-2.48l.83-5a2.17,2.17,0,0,1,2.48-1.76l2.49.42.18-1.07-2.49-.42a3.24,3.24,0,0,0-3.73,2.65l-.84,5A3.25,3.25,0,0,0,189.75,229.71Z" style="fill: rgb(38, 50, 56); transform-origin: 190.608px 224.208px;" id="elgr7z3vj0uus" class="animable"></path><g id="eldvm30prunms"><g style="opacity: 0.4; transform-origin: 190.608px 224.208px;" class="animable" id="ell9c5edszlvl"><path d="M189.75,229.71l2.49.42.19-1.07-2.5-.42a2.15,2.15,0,0,1-1.75-2.48l.83-5a2.17,2.17,0,0,1,2.48-1.76l2.49.42.18-1.07-2.49-.42a3.24,3.24,0,0,0-3.73,2.65l-.84,5A3.25,3.25,0,0,0,189.75,229.71Z" style="fill: rgb(255, 255, 255); transform-origin: 190.608px 224.208px;" id="ely06heap4lk" class="animable"></path></g></g><g id="el2exz6uarwwf"><rect x="192.59" y="217.98" width="13.34" height="15.82" style="fill: rgb(38, 50, 56); transform-origin: 199.26px 225.89px; transform: rotate(9.74364deg);" class="animable" id="el9icmzehdj4"></rect></g><g id="elk17rphkvqpc"><rect x="192.59" y="217.98" width="13.34" height="15.82" style="fill: rgb(255, 255, 255); opacity: 0.6; transform-origin: 199.26px 225.89px; transform: rotate(9.74364deg);" class="animable" id="el12qidxko4z9m"></rect></g><g id="elqgxfy8gyc9"><path d="M193.47,231.93l-1.45-.25,1.42-8.25a.74.74,0,0,1,.85-.6h0a.74.74,0,0,1,.6.86Z" style="opacity: 0.1; isolation: isolate; transform-origin: 193.461px 227.375px;" class="animable" id="el8net3dort5"></path></g><g id="ele63w3uu69ue"><path d="M197,232.55l-1.45-.25,1.42-8.25a.75.75,0,0,1,.85-.61h0a.75.75,0,0,1,.61.86Z" style="opacity: 0.1; isolation: isolate; transform-origin: 196.995px 227.991px;" class="animable" id="elkx8fk6fnln"></path></g><g id="elbgk9ynuoo68"><path d="M200.6,233.16l-1.46-.25,1.42-8.25a.74.74,0,0,1,.85-.6h0a.74.74,0,0,1,.61.85Z" style="opacity: 0.1; isolation: isolate; transform-origin: 200.585px 228.605px;" class="animable" id="ellksf3cbectg"></path></g><g id="el2f8lcirgetw"><path d="M204.16,233.77l-1.46-.25,1.42-8.24a.74.74,0,0,1,.86-.61h0a.74.74,0,0,1,.6.86Z" style="opacity: 0.1; isolation: isolate; transform-origin: 204.146px 229.214px;" class="animable" id="elwc8crt7e87o"></path></g><g id="elkgq1gbhkxpl"><rect x="193.71" y="216.9" width="13.88" height="1.93" style="fill: rgb(38, 50, 56); transform-origin: 200.65px 217.865px; transform: rotate(9.78deg);" class="animable" id="elv1i1lwkb10o"></rect></g><g id="elebwjhnsvjv7"><rect x="191.02" y="232.51" width="13.88" height="1.93" style="fill: rgb(38, 50, 56); transform-origin: 197.96px 233.475px; transform: rotate(9.78deg);" class="animable" id="elsrbuyncpa2l"></rect></g><g id="elokzwp31try"><rect x="193.71" y="216.9" width="13.88" height="1.93" style="fill: rgb(255, 255, 255); opacity: 0.5; transform-origin: 200.65px 217.865px; transform: rotate(9.78deg);" class="animable" id="elz20viouozwq"></rect></g><g id="elmg278cpyz9"><rect x="191.02" y="232.51" width="13.88" height="1.93" style="fill: rgb(255, 255, 255); opacity: 0.5; transform-origin: 197.96px 233.475px; transform: rotate(9.78deg);" class="animable" id="elzfblxp7v9fl"></rect></g><path d="M207.86,218.56c.17-.09.37-.14.55-.22a1.5,1.5,0,0,0,.75-.85,1.56,1.56,0,0,0,.13-1.12,2.18,2.18,0,0,0-.61-.78h0c-.76.13-1.27-1.18-.87-1.52a.94.94,0,0,0,.26-.65.4.4,0,0,0,0-.11.89.89,0,0,0-.07-.19,2.25,2.25,0,0,0-.38-.43,1.43,1.43,0,0,0-1.21-.22c-.92,1-2.73-.47-3.49-1.72s-2.58,0-3.79,1.56-1.2-.94-2.63-.78-1.88,2.75-1.88,2.75a1.15,1.15,0,0,0-.39,2,1,1,0,0,0,1.33-.07l1.11.21c-.18.63.36,2.37,1.36,2.29s-.17,1,1,1.74,1.09-.56,1.7-.88.28.82-.24,2.09,0,1.75.57,1.59.61-2.23.72-3,.65-1,1.78-1.4.69-1,.69-1l3.27.63A1.83,1.83,0,0,0,207.86,218.56Z" style="fill: #F9C015; transform-origin: 201.569px 216.76px;" id="elvf64g6nlpdg" class="animable"></path><g id="elll45audlxwo"><path d="M207.86,218.56c.17-.09.37-.14.55-.22a1.5,1.5,0,0,0,.75-.85,1.56,1.56,0,0,0,.13-1.12,2.18,2.18,0,0,0-.61-.78h0c-.76.13-1.27-1.18-.87-1.52a.94.94,0,0,0,.26-.65.4.4,0,0,0,0-.11.89.89,0,0,0-.07-.19,2.25,2.25,0,0,0-.38-.43,1.43,1.43,0,0,0-1.21-.22c-.92,1-2.73-.47-3.49-1.72s-2.58,0-3.79,1.56-1.2-.94-2.63-.78-1.88,2.75-1.88,2.75a1.15,1.15,0,0,0-.39,2,1,1,0,0,0,1.33-.07l1.11.21c-.18.63.36,2.37,1.36,2.29s-.17,1,1,1.74,1.09-.56,1.7-.88.28.82-.24,2.09,0,1.75.57,1.59.61-2.23.72-3,.65-1,1.78-1.4.69-1,.69-1l3.27.63A1.83,1.83,0,0,0,207.86,218.56Z" style="fill: rgb(255, 255, 255); opacity: 0.7; transform-origin: 201.569px 216.76px;" class="animable" id="elo6rqyt1ao1"></path></g><path d="M157.35,222.36c3.27-3.62,6.17-2.25,23.66-1.76,0,0,1.25-1.92,1.88-2s9.94.92,9.94.92l-2.21,9s-6.52-.07-8.06-.52c-.65-.19-2.2-2.3-2.2-2.3s-18.66,2.68-21,2.14S155.19,224.76,157.35,222.36Z" style="fill: rgb(235, 179, 118); transform-origin: 174.609px 223.558px;" id="eldyhb4be5wwn" class="animable"></path><g id="el1yo2w3uykkn"><polygon points="179.5 399.66 191.97 391.76 189.92 388.25 176.85 396.22 179.5 399.66" style="fill: rgb(255, 255, 255); opacity: 0.2; transform-origin: 184.41px 393.955px;" class="animable" id="elgy0awjbfof"></polygon></g><g id="elng08v52kwrd"><polygon points="194.86 400.53 209.02 400.53 209.02 396.3 194.32 396.02 194.86 400.53" style="fill: rgb(255, 255, 255); opacity: 0.2; transform-origin: 201.67px 398.275px;" class="animable" id="el659xn863x79"></polygon></g></g></g><defs>     <filter id="active" height="200%">         <feMorphology in="SourceAlpha" result="DILATED" operator="dilate" radius="2"></feMorphology>                <feFlood flood-color="#32DFEC" flood-opacity="1" result="PINK"></feFlood>        <feComposite in="PINK" in2="DILATED" operator="in" result="OUTLINE"></feComposite>        <feMerge>            <feMergeNode in="OUTLINE"></feMergeNode>            <feMergeNode in="SourceGraphic"></feMergeNode>        </feMerge>    </filter>    <filter id="hover" height="200%">        <feMorphology in="SourceAlpha" result="DILATED" operator="dilate" radius="2"></feMorphology>                <feFlood flood-color="#ff0000" flood-opacity="0.5" result="PINK"></feFlood>        <feComposite in="PINK" in2="DILATED" operator="in" result="OUTLINE"></feComposite>        <feMerge>            <feMergeNode in="OUTLINE"></feMergeNode>            <feMergeNode in="SourceGraphic"></feMergeNode>        </feMerge>            <feColorMatrix type="matrix" values="0   0   0   0   0                0   1   0   0   0                0   0   0   0   0                0   0   0   1   0 "></feColorMatrix>    </filter></defs></svg>